<svg xmlns="http://www.w3.org/2000/svg" width="16" height="20" fill="none" viewBox="0 0 16 20"><path fill="#f7f7f8" stroke="#101820" d="M8 .5a7.4 7.4 0 0 1 5.299 2.246A7.78 7.78 0 0 1 15.5 8.182c0 2.985-1.888 5.819-3.867 7.956a27 27 0 0 1-3.586 3.213L8 19.384l-.047-.033a26.781 26.781 0 0 1-3.586-3.213C2.387 14 .5 11.167.5 8.182c0-2.041.793-3.996 2.2-5.436A7.41 7.41 0 0 1 8 .5Z"/><path fill="#101820" stroke="#101820" d="m7.12 10.973.297.923-.298.925h-.432l.248-.77.05-.153-.05-.154-.248-.771zM9.197 10.973l-.248.771-.05.154.05.153.248.77h-.432l-.3-.925.3-.923zM9.563 9.66l-.35-.257.349-1.08.473-1.47-1.245.913-.905.663-.464-.34-.001-.001-.44-.322-1.244-.91.472 1.466.348 1.081-.35.258-1.257-3.904 2.64 1.935.296.217.296-.217 2.64-1.935z"/></svg>