<svg xmlns="http://www.w3.org/2000/svg" width="16" height="20" fill="none" viewBox="0 0 16 20"><path fill="#da291c" d="M16 8.182C16 14.546 8 20 8 20S0 14.546 0 8.182c0-2.17.843-4.251 2.343-5.786A7.9 7.9 0 0 1 8 0a7.9 7.9 0 0 1 5.657 2.396A8.28 8.28 0 0 1 16 8.182"/><path fill="#fff" d="m7.943 11.897-.46 1.425H6l.459-1.425L6 10.473h1.484z"/><path fill="#fff" d="m9.425 11.897.459 1.425H8.4l-.459-1.425.46-1.424h1.483zM7.885 7.289 4 4.44l.14.436 1.802 5.597 1.201-.88-.459-1.425.441.322.76.559 1.2-.88-.458 1.424 1.2.88 1.802-5.597.141-.436z"/></svg>