<svg xmlns="http://www.w3.org/2000/svg" width="1280" height="692" fill="none" viewBox="0 0 1280 692">
    <mask id="a" width="1280" height="692" x="0" y="0" maskUnits="userSpaceOnUse" style="mask-type:luminance">
        <path fill="#fff" d="M1280 0H0v691.643h1280z"/>
    </mask>
    <g fill="#dedfe1" mask="url(#a)">
        <path d="M1057.29 464.186c-.66.936-1.02 1.761-1.23 2.909-.14.814-.52 2.653.89 2.24.7-.2.83-.925 1.27-1.415.37-.424 1-.58 1.46-.858.6-.357.79-1.438.83-2.096.05-.735-.14-1.527-.83-1.872-.99-.502-1.86.312-2.39 1.092M1067.01 458.575c-.59.533-.74 1.948-1.66 1.19-.52-.431-1.42-1.805-1.89-.626-.39.974-.4 2.184-.47 3.23-.05 1.035-.3 1.937-.55 2.911-.05.236-.18.626.08.739s.76-.246 1-.349c.62-.277 1.14-.328 1.77-.041.48.215.77.759 1.07 1.21.12.184.25.471.43.605.23.174.48.113.7-.031.21-.133.49-.164.67-.349.3-.307.33-.871.32-1.291-.02-1.056-.72-1.784-.82-2.789-.13-1.22.98-1.897 1.14-3.014.16-1.087-.95-2.143-1.78-1.384M1067.9 470.066c-.03.299.06.886.22 1.078.22.266.57-.075.65-.427.07-.31.07-.8-.05-1.078-.24-.523-.76-.128-.81.438M1072.43 469.109c-.2-.585-1.1-.791-1.45-.516-.22.172-.4.774-.28 1.169.31.911 2.21.705 1.73-.653M1069.47 457.322c1.16.49 1.68-1.285.61-1.717-.55-.226-1.25.5-1.26.903 0 .333.29.657.65.814M1200.53 549.463c-.69-1.294-1.87-2.317-2.7-3.53-.47-.682-2.32-3.801-3.43-2.838-.74.662 0 3.349-.13 4.312-3.01-.07-5.19-3.5-7.61-5.004-2.7-1.675-5.97-2.417-8.55-4.262-2.63-1.886-2.75-4.914-3.82-7.752-.52-1.374-1.12-2.507-2.04-3.661-1-1.243-1.03-2.186-1.11-3.74-.13-2.217-.93-4.333-1.81-6.338-.74-1.695-2.08-3.26-.8-5.035 1.74-2.407 4.2-3.429 7.1-3.52 1.63-.05 3.22.301 4.81.642.97.211 4.41 1.414 4.91-.03.41-1.193-1.36-2.998-2.3-3.38-1.37-.561-2.92.021-4.34-.511-1.4-.532-2.24-1.855-3.52-2.587-.67-.371-1.39-.572-2.12-.722-.51-.101-1.41-.02-1.83-.331-.82-.602-.83-2.297-1.52-3.119-.78-.943-1.8-1.815-2.74-2.578-.58-.461-1.06-1.063-1.66-1.494-.69-.481-1.51-.712-2.22-1.123-1.32-.742-2.67-2.066-3.79-3.119-1.01-.963-1.79-2.096-2.85-3.028-1.12-.983-2.16-1.394-2.93-2.728-.57-.993-1.15-3.229-2.59-2.908-.97.21-1.69 1.985-2.75 1.153-1-.782-.83-3.049-1.56-4.132-.89-1.314-3.46-2.066-4.87-2.637-.9-.361-2.04-.492-2.85-1.033-.85-.582-.78-1.434-.97-2.347-.18-.943-.55-1.645-1.36-2.156-.75-.472-1.75-.652-2.26-1.464-.38-.602-.51-1.866.24-2.267.58-.311 1.65.131 2.29.111.12-.813-.36-1.495-.7-2.167-.32-.621-.46-1.323-.77-1.945-1.11-2.196-3.8-2.257-5.87-2.598-1.15-.19-3.33-.451-3.79-1.795-.42-1.203.86-1.805 1.28-2.727.49-1.083-.7-1.434-1.55-1.836-1.39-.651-2.77-1.253-4.08-2.065-1.49-.923-2.51-2.217-3.76-3.39-1.12-1.063-.95-2.437-1.73-3.731-.69-1.133-3.17-1.895-4.27-1.023-.67.532-.27 1.555-.37 2.307-.72.13-2.01-.903-2.61-.231-.99 1.113 3 2.989 3.64 3.3 1.09.521 2.41.882 3.34 1.694.92.803 1.18 2.056 1.5 3.19.4 1.404 1.25 2.878.99 4.382-.19 1.113-1.57 2.226-2.53 1.113-.34-.391-.58-1.053-1.19-.862-1.1.331-1.34 2.146-1.13 3.058.19.863.61 1.364 1.08 2.046.5.702.74 1.585 1.29 2.267.57.722 1.4 1.083 2.2 1.474 1.95.933 2.29 2.838 2.82 4.723.62 2.197 1.97 4.122 2.58 6.328.26.953.54 1.735 1.27 2.417.76.722 1.12.973 1.38 2.016.26 1.063.5 1.845 1.31 2.607.93.873 1.69.452 2.88.562-.02.802-.24 2.176.24 2.838.54.762 1.69 1.033 2.52 1.223 2.25.502 5.06-.26 6.5 1.866a7.6 7.6 0 0 1 1.24 2.888c.23 1.073.83 1.795 1.48 2.647.69.913.97 1.936 1.51 2.939.55 1.003 1.25 1.955 1.89 2.908.8 1.183 1.67 2.277 2.42 3.5.66 1.083 1.61 1.986 2.49 2.908.91.953 1.55 1.876 2.15 3.069.67 1.364 1.59 2.196 2.56 3.299 1.29 1.455 1.98 2.718 2.5 4.563.45 1.595.64 2.939 1.7 4.293.92 1.153 1.82 2.316 2.69 3.51 1.06 1.444 2.34 1.945 3.76 2.818 1.86 1.153 2.97 2.336 3.95 4.292.51.993 1.25 1.795 1.8 2.758.5.892.73 1.795 1.02 2.767.57 1.936 1.42 3.149 2.82 4.513 1.43 1.414 2.62 3.199 3.96 4.714.93 1.043 1.15 2.296 1.32 3.62.24 1.905.61 3.701 1.09 5.566.25 1.003.67 2.036 1.38 2.788 1.52 1.604 3.68 2.647 5.37 4.081.86.732 3.29 2.558 3.18.171-.09-2.086-1.94-3.751-2.14-5.817-.2-2.015-1.6-3.971-.78-6.057.4-1.013 1.86-1.233 2.8-1.434 1.48-.321 2.6-1.143 3.98-1.745 1.99-.862 2.82.13 3.87 1.795.6.943 2.49 3.44 2.27.752-.11-1.283-.48-2.878-1.08-4.031M1250.48 554.293c-1.22-.212-2.92.192-3.86.903-.98.74-.73 1.769-.44 2.749.39 1.327.79 2.643.69 4.028-.1 1.192-.75 2.268-.67 3.47.02.096.01.201.01.298.02 1.134-.32 2.22-.33 3.364 0 .355 0 1.374.35 1.624.92.635 2.11-1.749 2.27-2.287.33-1.067.25-2.173.38-3.259.14-1.182.06-2.365.23-3.537.26-1.75 1.04-3.326 1.81-4.941.41-.884 1.04-2.153-.44-2.422M1261.54 522.363c.24-2.217-2.26-3.296-2.82-.859-.22 1.029-.1 2.148-.58 3.106-.56 1.069-1.69 1.558-2.69 1.988-.64.279-1.9.599-2.04 1.488-.12.789.58 1.728.73 2.497.47 2.477-1.8 3.975-1.8 6.282 0 1.078.52 2.097.67 3.156.24 1.528.11 3.176.14 4.734.04 1.338.22 2.936 1.35 3.725 1.5 1.059 1.89-1.938 2.04-2.976.3-1.998-.28-3.596-.68-5.513-.22-1.069-.36-2.227-.1-3.316.25-1.029.88-1.788 1.49-2.577.61-.799 1.14-1.638 1.29-2.696.14-.959-.09-1.918-.01-2.877.19-2.417 2.75-3.705 3.02-6.152M1266.41 498.248c-.58.717-.5 2.111-.72 2.977-.24.886-.59 1.673-.6 2.598-.02 1.016.27 2.071-.07 3.057-.41 1.125-1.26 1.981-1.54 3.185-.18.737-.11 2.38.79 2.638.05.01.11.02.17.03.9.09 1.48-1.284 1.64-2.021.15-.597.2-1.234.29-1.841.12-.787.17-1.344.15-2.111-.02-.806.37-1.672.61-2.419.53-1.613 1.15-3.385.76-5.097-.16-.637-.8-1.792-1.46-.986M1271.42 471.25c-.88-.102-1.06.941-1.13 1.666-.1 1.042-.17 2.054-.35 3.076-.13.705-.16 1.686.27 2.299.8 1.104 1.49-.889 1.65-1.543.13-.521.35-.991.47-1.523.27-1.134.79-3.801-.91-3.985M1266.17 488.754c0 .509.21.928.47.928s.45-.419.45-.928-.2-.916-.45-.916-.47.407-.47.916M1264.32 488.299c0-.256-.41-.461-.91-.461s-.93.205-.93.461.43.461.93.461.91-.205.91-.461M1271.7 466.629a.93.93 0 0 0-.92-.922c-.5 0-.92.415-.92.922a.92.92 0 1 0 1.84 0M1270.78 459.251c.5 0 .92-.624.92-1.383 0-.76-.42-1.384-.92-1.384-.51 0-.92.624-.92 1.384s.41 1.383.92 1.383M1268.01 450.027c-.51 0-.92.615-.92 1.384s.42 1.383.92 1.383.92-.629.92-1.383c0-.755-.42-1.384-.92-1.384M1266.63 433.43c-.26 0-.46.622-.46 1.387s.2 1.379.46 1.379c.25 0 .46-.622.46-1.379s-.21-1.387-.46-1.387M1262.94 434.352c.25 0 .46-.21.46-.461a.465.465 0 0 0-.46-.461c-.25 0-.46.21-.46.461s.21.461.46.461M1264.32 427.897c0 .513.21.922.46.922.26 0 .47-.409.47-.922s-.21-.922-.47-.922c-.25 0-.46.42-.46.922M1264.24 423.084c.13-.575.1-1.361-.03-1.927-.08-.311-.2-.63-.54-.74-.36-.119-.61.073-.95-.192-.22-.173-.5-.776-.87-.593-.2.109-.29.721-.29.922 0 .384.22.722.3 1.087.23.877-.15 1.854.83 2.42.8.466 1.4-.256 1.55-.986M1257.52 406.63c-.12.587.23 1.337.49 1.837.7 1.357 2.18 1.318 2.69-.154.44-1.231.09-2.664.6-3.886.43-1.01 1.08-1.886 1.17-3.002.09-1.173-.5-1.972-1.4-2.674-.96-.731-1.63-1.511-2.28-2.502-.39-.586-1.16-1.962-2.08-1.433-.87.5-.77 1.886-.49 2.665.41 1.164 1.28 2.126 1.74 3.28.56 1.405.47 2.915.12 4.358-.12.53-.46.982-.57 1.501M1249.63 398.717c.14.391.45.592.82.592.55 0 1.12-.425 1.55-.76.25-.19.47-.447.24-.738a.98.98 0 0 0-.68-.346c-.62.011-2.34.145-1.93 1.263M1260.22 391.714c-.26-.424-.69-.916-1.24-.608-.46.271.05.753.25 1.013.17.184.3.396.45.598.17.213.25.492.45.695.22.212.55.28.83.337.24.049.43.058.55-.202.14-.328-.06-.54-.28-.752-.34-.348-.76-.656-1.02-1.071"/>
        <path d="M808.405 553.916c-.21 2.085-.75 4.129-.97 6.223-.21 2.105.04 4.169.3 6.253.28 2.145.55 4.389-.12 6.484-.65 2.034-2.14 3.497-3.801 4.73-1.18.871-2.67 1.503-3.48 2.775-1.3 2.055.35 2.997 1.42 4.49 1.59 2.224-2.04 2.906-3.34 3.687-1.331.802-1.691 2.375-2.051 3.788-.53 2.055-.92 3.447-2.74 4.63-1.46.962-3.151 1.172-4.721 1.904-1.62.751-2.63 2.425-3.541 3.898-1.09 1.774-2.27 2.415-4.34 2.505-1.62.07-3.231 1.173-3.911 2.646-.79 1.713-.65 3.968-.91 5.822-.19 1.373-.45 3.046-1.53 4.028-.83.752-1.991.902-3.051 1.142-2.64.602-5.01 1.995-7.651 2.556-1.09.23-2.23.33-3.4.32a19.9 19.9 0 0 1-5.951-.992c-1.921-.641-3.991-2.465-1.141-3.607 1.621-.641 5.751-.03 6.592-1.844.47-1.002-1.021-3.808.44-3.848.98-.03 2.3 1.022 3.22 1.323 1.26.431 2.59.521 3.731-.291 2.6-1.854 3.15-5.742 5.43-7.986 2.061-2.025 5.011-2.766 6.922-5.001.97-1.132 1.64-2.495 2.1-3.908.43-1.283.46-2.866 1.05-4.048 1.31-2.596 3.591-4.961 5.531-7.085 6.061-6.614 9.581-14.811 11.252-23.569.05-.291.11-.581.16-.862.58-3.337 1.53-6.553 2.31-9.84.29-1.243 1.09-8.348 3.321-7.426 1.33.551 2.01 2.986 2.35 4.209.63 2.235.77 4.59.53 6.894m-315.97-98.695s.04.06.06.08c.04.051.07.111.1.161l.03.09a.9.9 0 0 0-.19-.331m-1.57 28.81.03.14v.02c.03.171.06.351.07.532a5 5 0 0 0-.11-.702m-.18-.711s.02.05.02.07v.02c.03.11.07.23.09.341v.01c.02.07.03.13.05.2-.05-.22-.11-.441-.18-.651m-.22-.652c.02.06.05.13.08.191.05.15.11.3.16.451-.07-.221-.15-.431-.23-.642m-.07-.14s.03.07.04.11c-.09-.21-.18-.431-.28-.631.09.17.16.351.24.531m-1.2-2.515c.25.531.52 1.062.78 1.583.06.11.11.231.16.341-.3-.642-.64-1.273-.94-1.924m-.301-.662.02.04c.01.02.02.051.03.081a.6.6 0 0 0-.05-.121M288.163 182.855c-.58 1.072-1.211 1.413-2.211 1.974-1.27.712-.75 2.055-.48 3.277.2.902.27 1.744-.64 2.215-.95.491-1.6-.161-1.78-1.063-.18-.931-.1-1.743-.44-2.655-.31-.812-.53-1.493-.07-2.325.44-.802 1.31-1.263 1.76-2.084.4-.712.46-1.874 1.16-2.365.59-.401 2.051-.441 2.631-.01 1.05.761.58 2.104.07 3.046m-14.153 15.402c-.07 1.714.05 3.778-.94 5.271-1.09 1.654-3.27 1.934-4.851 2.926-1.65 1.022-1.9 2.365-2.57 4.049-.6 1.513-1.89 2.304-2.85 3.537-.46.581-.781 1.263-1.151 1.914-.33.581-.7 1.132-1.24 1.553-1.02.792-2.56 1.303-3.8 1.573-2.961.642-5.271-1.703-6.281-4.238-.11-.271-.26-.521-.42-.792-.791-1.233-2.071-2.485-1.751-3.958.14-.622.68-1.323 1.401-1.233.83.1 1.07 1.113 1.24 1.784.35 1.353.64 3.918 2.23 3.948.27 0 .57-.07.92-.23 1.51-.702 2.831-2.726 2.311-4.4-.711-2.254-1.761-4.148-1.251-6.643.47-2.275 2.381-2.195 3.681-3.738 1.01-1.193 1.02-3.618 2.67-3.898.1.731-.97 3.427.69 2.675.581-.26 1.131-1.192 1.581-1.643.88-.892 1.97-1.443 3.09-1.944.66-.301 2.271-1.473 1.53.1-.83 1.754-2.11 3.367-3.24 4.93-.27.381-1.52 1.744-1.03 1.924.53.201 1.66-.601 2.41-.39 1.53.43 1.62 2.835 3.051.791 1.49-2.154 1.93-4.279 1.49-6.804-.17-1.022-.14-5.572 1.99-4.399 1.86 1.022 1.17 5.662 1.09 7.355m-33.245-14.129c-.85 1.082-1.65 2.134-1.88 3.547-.18 1.143-.05 2.305-.42 3.427-.43 1.353-1.21 2.606-1.841 3.868-1.15 2.335-2.37 5.241-5.38 5.051-.18-.01-.37-.02-.551-.02-.72-.01-1.37.07-2.11.27-1.1.291-2.51.752-3.59.141-2.341-1.333-.23-5.121-3.551-5.672-.98-.16-2.81.13-3.511-.752-.77-.972.521-2.625 1.061-3.377.71-.992 1.46-2.314 2.42-3.066.72-.561 1.14-1.363 1.15-2.285 0-.912-.24-1.222.61-1.794 1.271-.851 2.821-1.302 3.951-2.364.63-.582 1.05-1.343 1.12-2.215.11-1.172-.77-2.916-.17-3.978.13-.231.33-.401.56-.521.81-.431 2.11-.341 2.851-.401 2.53-.211 5.03-1.143 7.251.641.93.752 1.45 1.784 1.93 2.866.48 1.052 1.12 2.145 1.32 3.297.24 1.333-.46 2.345-1.24 3.337M1250.81 384.394c1.22.671 2.45 1.353 3.78 1.764 2.01.621 5.77 2.325 5.03-1.443-.27-1.383-1.14-2.626-1.19-4.049-.05-1.122.3-2.084-.01-3.206-.33-1.213-.98-2.165-.81-3.488.17-1.352.8-2.495.41-3.898-.36-1.343-1.27-2.355-1.47-3.778-.37-2.665-1.89-4.759-2.63-7.325-.36-1.242-1.18-2.214-2.3-2.816-1.37-.741-2.65-1.342-2.67-3.136-.02-1.754.63-2.876-1.58-3.397-1.2-.281-3.17.571-3.8-.832-1-2.275 1.74-1.864 2.87-2.235 3.22-1.052.9-6.403 2.61-8.537.82-1.032 4.19-.972 3.45-2.636-.64-1.433-2.49-1.523-3.77-1.904-1.63-.501-2.53-2.275-3.99-3.237-1.4-.911-2.22-1.222-3.07-2.765-.68-1.223-1.03-2.796-1.11-4.189-.05-.701.12-1.433-.06-2.124-.26-1.002-1.08-1.734-1.4-2.716-.47-1.423-1.08-3.878-.49-5.341.62-1.513 2.24-2.285 3.43-3.257 2.09-1.703 2.38-4.64 1.35-7.055-1.06-2.505-3.27-2.846-5.63-3.427-2.42-.591-5.02-1.653-6.99-3.206-2.22-1.744-2.37-4.48-3.67-6.804-1.15-2.085-3.5-4.54-1.76-7.035 1.49-2.135 4.68-.291 5.92-2.866 1.6-3.347-1.29-5.261-3.85-6.343-2.25-.952-3.77-3.007-6.13-1.103-.66.532-1.37 1.604-2.33 1.413-1.07-.22-1.6-1.543-2.48-2.074-.72-.431-1.4-.321-2.19-.461-2.35-.431-2.86-1.683-3.07-3.447-.06-.461-.09-.952-.14-1.463-.17-2.094-.43-5.742-3.11-6.073-1.22-.16-2.02.922-3.09 1.303-.94.341-2.69.481-2.83 1.794-.12 1.112 1.78 2.054.97 3.106-.44.581-1.34.481-1.98.601-1.04.191-1.96.642-2.96.01-1.15-.721-1.82-1.934-2.48-3.056-.63-1.072-1.53-1.814-1.92-3.006-.49-1.533-.92-3.087-1.43-4.61-.46-1.403-.86-2.575-1.5-3.918-.32-.681-.44-.962-1.03-1.373-.45-.32-1.01-.431-1.34-.902-1.09-1.573 1.09-1.944.38-3.417-.39-.821-1.16-.681-1.83-.972-.77-.33-.7-.381-.88-1.232-.2-.942-.11-1.283-1.09-1.373-1.91-.181-2.3.551-3.39-1.303-.89-1.523-1.5-3.156-2.16-4.79-.61-1.493-1.97-5.271.82-4.86 1.09.16 2.14.601 2.19-.942.04-1.032-.82-2.114-.13-3.106 1.48-2.105 4.19 2.415 5.76-.101.55-.891.42-2.835-.36-3.567-.77-.721-1.74-.741-1.99-1.874-.27-1.303.4-2.836.41-4.158.01-1.303-.82-2.365-.83-3.668 0-1.163.17-2.575 1.42-2.014.61.27 1.12.831 1.75 1.112.56.261 1.23.361 1.65.852.85 1.002.26 2.645 1.65 3.277 1.22.551 2.41-.081 1.93-1.413-.46-1.293-1.72-2.115-2.36-3.297-.72-1.333-.86-3.107-.89-4.6-.03-1.533.42-2.415 1.23-3.667.87-1.353.7-2.536.62-4.089-.08-1.403-.08-2.926.07-4.319.18-1.583 1.09-1.864 1.97-2.986.83-1.052.57-2.465 1-3.678.47-1.332 1.48-2.084 2.8-2.475 2.71-.791 6.08-.812 8.88-.571.8.07 2.03.591 2.72-.06.67-.621.31-1.794-.08-2.475-1.02-1.814-2.7-3.177-3.79-4.941-.7-1.132-.94-2.405-1.25-3.687-.26-1.082-.78-2.155-.92-3.237-.16-1.413.05-2.776-.39-4.179-.3-.982-.74-1.593-.28-2.665.32-.762 1.34-1.413 1.28-2.315-.14-1.744-3.54-.621-4.06-2.185-.53-1.583 2.26-3.888 1.12-5.501-.59-.832-2.07.231-2.67-.431-.5-.551.96-2.144 1.1-2.806.2-1.022.02-1.132-.59-1.773-1.01-1.043-2.01-1.153-2.14-2.686-.1-1.182.27-2.295.46-3.437.15-.822.75-2.185.56-2.986-.13-.531-.49-.822-.63-1.393-.02-.1-.04-.191-.05-.301-.11-1.633.83-2.986.6-4.7-.16-1.122-1.49-2.735-1.17-3.838.2-.681.93-.942.86-1.773-.07-.852-.68-1.032-1.08-1.604-.36-.541-.64-1.453-.5-2.104.13-.621.7-1.032.8-1.704.28-1.813-1.33-3.186-1.77-4.82-.41-1.503.75-3.196-.02-4.649-.7-.431-1.36-.601-2.17-.601-.52 0-1.59.38-2.02-.071-1.01-1.062 1.05-2.615 2.08-2.324 1.45.4 2.17 1.743 3.89 1.012 1.45-.612 2.37-2.465 3.02-3.818.58-1.203 1.2-2.736 2.09-3.748.94-1.072 2.61-1.343 3.39-2.605.95-1.544-1.8-1.013-2.26-1.794-.27-.461.12-1.754.06-2.315-.07-.802-.32-1.533-.95-2.064-1.82-1.553-4-.521-5.57.791-.55.451-1.26 1.083-1.98.612-.71-.451-.48-1.493-.72-2.165-.85-2.335-2.71.19-3.82.792-1.35.731-3-.962-4.14.46-.59.732-1.45 3.167-2.75 2.706-1.38-.49-.53-3.417-1.5-4.399-1.23-1.222-2.87-.44-4.3-.18-.43.08-1.68.39-2.08.18-.65-.33-.49-1.052-.52-1.733-1.2-.14-5.13-.07-4.97 1.703.11 1.203 1.81 1.133 1.64 2.265-.16 1.112-1.83 1.222-2.65 1.282-1.11.08-1.98.281-3.06.562-1.56.4-1.71-.471-2.49-1.564-1.77-2.465-1.55 3.257-1.76 4.019-.25.912-.35 2.264-1.39 2.685-.91.371-2.47-.19-3.46-.16.33-1.663 1.56-2.255 2.26-3.658.87-1.743-.36-2.124-1.62-1.112-.84.671-2.9 2.485-3.38.35-.35-1.532 1.77-2.414 2.85-2.895 1.47-.662 2.93-.561 4.46-.932 1.73-.411 3.08-1.674 3.99-3.167 1.8-2.926 3.06-7.114 1.01-10.11-.88-1.293-1.67-2.696-1.98-4.24-.26-1.292.26-2.916-.4-4.098-.55-.982-1.73-1.303-2.55-1.984-.66-.551-1.09-1.253-1.51-1.994-.72-1.283-1.64-3.618-3.49-3.167-1.82.431-3.36 4.67-5.25 2.525-.87-.992-1.07-2.405-1.49-3.607-1.18-.11-4.16-.08-4.66-1.393-1.03-2.726 2.59-1.824 3.77-1.714-.12-.982-.46-1.443-1.09-2.144-.54-.601-1.48-1.583-.61-2.355.64-.571 1.69-.06 2.32.26 1.02.502 1.46.812 1.69 1.794.4 1.774 1.43 2.756 3.39 2.606 1.01-.07 1.69-.882 2.63-1.072 1.17-.231 1.81.801 2.88.911 2.84.281 3.44-4.058 3.59-6.082.19-2.545.28-4.019 2.32-5.772.97-.842 1.72-1.473 1.99-2.776.2-1.002.07-2.014 1.3-2.225.84-.15 1.92.23 2.8.21 1.11-.02 1.6.05 2.01 1.183.33.942.33 2.345 1.6 2.526 1.28.18 1.27-1.083 1.91-1.804.79-.892 1.65-.15 2.59-.571 1-.441.79-1.694 1.03-2.596.61-2.204 2.84-4.148 4.69-5.36.79-.512 1.52-1.053 2.42-1.364.83-.29 1.62-.37 2.13-1.232.64-1.093-.06-1.353-.73-2.095-.57-.641-.92-1.433.22-1.473.92-.04 1.5 1.032 2.35.17.67-.68.53-1.893-.26-2.324-.39-.22-1.01-.19-1.44-.19-.64-1.834.86-1.794 2.1-2.155.97-.28 2-1.573 1.25-2.626-.59-.821-2.86-.891-3.71-.55-1.46.6-1.52 2.785-3.08 3.216-2.39.651-2.39-2.736-3.35-4.048-.65-.892-1.04-2.947-2.09-3.448-1.18-.56-2.03 1.343-3.27.21-1.06-.971-1.13-1.643-2.69-1.021-1.09.42-2.02.821-3.24.721-1.52-.13-1.58-.882-.4-1.733.88-.622 2.37-.832 3.08-1.624.81-.912-.15-1.944.21-2.996.31-.932 1.74-1.844.44-2.746-1-.691-2.47.672-3.32-.04-1.04-.862.79-1.824 1.32-2.325.68-.651.98-1.583.46-2.445-.52-.841-1.3-.751-2.17-.912-1.14-.21-1.06-.911-.98-2.004.11-1.503.76-5.09-1.82-4.289-2.37.732-2.44 3.307-4.34 4.34-.9.5-2 .21-2.93.63-.98.452-1.46 1.414-2.23 2.095-1.03.902-2.54 1.443-3.86 1.663-1.26.21-2.57-.06-3.84.251-.92.22-.92.852-1.35 1.724-.76 1.513-2.18 3.507-2.35 5.21 1.35.05 1.42-1.733 2.92-1.563.12 1.283-1.05 2.545-1.36 3.778-.14.531-.04 1.463-.36 1.904-.64.852-1.81-.11-2.68.15-1.54.461-.76 2.526-1.13 3.718-.27.892-2.03 2.896-.56 3.577 1.33.612 2.41-1.693 3.85-1.372 1.61.35 2.43 2.355 4.19 1.372.69-.39 2.96-2.324 3.69-.861.34.691-1.22 2.495-1.53 3.166-.63 1.363-1.63 1.604-3.09 1.874-1.76.32-2-.21-3.17-1.323-2.47-2.364-5.33 1.704-8.16-.31-.91-.642-2.07-2.465-2.67-.902-.17.45.07 1.252-.46 1.543-.55.3-1.4-.39-1.84-.661-1.38-.832-2.41-1.533-3.89-.491-1.47 1.032-1.14 1.844.17 2.765 1.01.722 2.15 1.824.24 2.315-1.6.401-2.9-1.162-4.44-.912-2.38.391-1.29 5.532-3.31 5.462-1.05-.04.05-2.215-.19-2.726-.62-1.343-3.56 2.084-4.22 2.676-.92.841-2.02 1.302-2.99 2.054-1.84 1.433-2.78 3.728-5.19 4.52-1.24.4-2.59.14-3.84.45-1.09.27-2.08.862-3 1.513-2.15 1.523-4.12 3.327-6.6 4.3-1.36.54-2.5 1.112-3.57 2.094s-1.98.47-1.31-1.032c.05-.12-1.28.51-1.45.68-.44.462-.73 1.033-1.23 1.454-.97.812-2.27 1.393-2.61 2.756-.21.841.21 1.463-.6 2.104-.75.601-1.6.18-2.46.39-.81.211-1.32.752-1.86 1.374-1.08 1.262-1.98 2.014-3.39 2.906-1.23.791-2.37 1.633-3.05 2.996-.79 1.573.35 3.467-.79 4.91-.57.712-1.4.732-2.11 1.183-1.07.691-.46 1.122-.78 2.074-.65 1.904-2.68 1.884-1.74 4.289.28.681 1.18 1.433 1.23 2.184.07 1.093-1.31 1.403-2.18 1.624-.6.15-1.18.39-1.71.711-.84.501-1.51 1.213-2.12 1.974-.64.812-1.17 1.714-1.79 2.536-.22.29-.38.63-.61.921-.11.15-.19.18-.32.281-.13.1-.24.26-.36.38-.49.472-1.04.873-1.68 1.103-.95.33-2.25.21-2.99 1.012-2.15 2.355 3 2.696 3.95 3.317 1.77 1.173.38 5.151 3.12 4.56 1.16-.251 2.15-.902 3.38-.772.98.11 1.84.581 2.84.571 1.08 0 2.26-.541 3.34-.21 1.09.33 1.58 1.433 2.27 2.244 1.1 1.283 4.18 1.894 2.26 3.598-.84.751-1.87 1.273-2.57 2.184-.62.802-.86 1.874-1.56 2.606-.72.751-1.52.892-2.29.13-.49-.491-.67-1.884-1.34-2.124-.7-.241-1.78.852-2.32 1.182-.76.471-1.63.752-2.39 1.243-1.16.741-2.72 3.667-4.3 2.395-.35-.281-.58-.842-.75-1.243-.89-.431-1.48-.08-2.37-.11s-1.38-.862-2.18-.942c-1.82-.17-1.42 3.267-1.63 4.409-.66 3.628-2.29 7.095-5.07 9.55-1.28 1.132-2.71 2.976-4.52 3.106-1.92.151-3.13-.471-3.8 1.985-.54 1.934-.49 3.447-1.61 5.2-.81 1.273-2.17 3.127-1.94 4.73.09.642.38 1.153.71 1.634.64.972 1.44 1.823 1.1 3.337-.54 2.415-3.24.21-4.35 1.813-.24.361-.27.962-.29 1.383-1.48.521-2.46-.521-3.89.361-2.13 1.323-5.26 2.746-7.53 1.002-1.9-1.453-1.83-3.768-2.86-5.722-1.08-2.024-3.37-2.104-5.39-1.924-2.03.181-4.03.351-6.06.461-2.42.13-4.94.641-6.89 2.175-1.48 1.152-2.3 2.896-3.63 4.188-1.715 1.654-3.815 2.796-5.275 4.74-1.691 2.225-2.371 4.96-3.491 7.486-.82 1.854-2.05 3.427-3.13 5.12-1.19 1.864-2.311 3.618-4.421 4.48-.47.19-.97.33-1.46.471-.49-.912-.49-1.544-1.551-1.734-1-.18-1.86-.01-2.82-.471-.5-.24-.75-.571-1.35-.571s-.74.461-1.18.531c-.85.13-1.321-.451-2.311-.01-.96.421-1.55 1.243-2.64 1.383-1.17.16-2.06.21-3.191.651-1.09.431-2.23.06-3.31.411-1.09.351-1.87 1.654-3.131 1.453-1.28-.21-1.59-1.663-.75-2.535.81-.842 2.091-.942 2.881-1.844.74-.842 1.23-2.195.29-3.066-1.681-1.564-4.901-.191-6.731.33-2.241.642-4.861 1.473-6.841 2.736-.96.621-2.261 1.503-2.691 2.615-.42 1.063.1 2.315.31 3.377.24 1.203.62 2.325.91 3.508.4 1.623.14 3.166-.16 4.78-.21 1.192-.99 6.854-3.17 5.591-.38-.22-.65-.851-.95-1.172-.4-.421-.97-.662-1.35-1.082-.951-1.033.43-1.844.98-2.766 1-1.654-.62-2.816-.58-4.479.01-.832.44-1.023 1.02-.371.37.431.42 1.132.63 1.633.79 1.844 1.07-1.623 1.11-2.134.06-.942.24-3.127-1.34-2.746-1.08.261-1.721 1.503-2.251 2.375-.56.922-1.29 1.693-1.94 2.555-.59.782-.95 1.844-1.76 2.435-.63.451-2.541 1.073-3.091.181-.51-.812.861-1.944 1.191-2.606.47-.922.26-2.144.93-2.966.86-1.062 2.55-.892 3.67-1.493 1.03-.551 1.601-1.513 2.011-2.575-2.881-.201-5.661 1.272-8.132 2.585-.92.491-1.88.471-2.82.962-.98.491-1.85 1.172-2.811 1.663-1.18.602-2.4 1.173-3.54 1.864a21.4 21.4 0 0 1-3.571 1.744c-1.13.431-2.22 1.463-3.4 1.714-1.2.26-2.371-.061-3.541-.271-.58-.11-1.91-.351-1.93.581-.02.892 1.61 1.293 2.18 1.664 1.47.962 2.021 3.577 1.04 5.08-.52.792-1.5 1.313-2.24 1.874-1.13.862-1.18 1.263-1.03 2.616.14 1.232-.44 1.823-.78 2.926-.28.902-.13 2.405 1.14 2.004 1.15-.371 3.55-5.131 4.791-2.195.96 2.265-3.091 4.419-.55 6.484.9.731 2.18.481 3.05 1.162.72.561 1.23 2.115 1.46 2.976.25.952-.05 2.385-1.26 2.405-1.09.02-1.71-1.142-2.87-.932-.89.161-2.271.491-3.091.862-.98.461-1.05 1.573-1.05 2.565 0 1.844 1.2 4.5 3.31 3.177.371-.23.701-.501 1.091-.711.07-.04.04.861 0 .962-.1.23-.49.521-.66.691-.52.501-1.071.972-1.701 1.333-1.25.721-2.77 1.052-4.05.19-1.431-.972-2.471-.721-4.141-.811-1.52-.091-2.49-1.273-3.951-1.403-1.98-.181-3.13 3.096-4.1 4.429-.61.842-.9 1.593-1.16 2.585-.5 1.934-1.261 2.956-3.261 3.207-1.95.24-3.27-.16-5.051-.932-1.42-.621-2.16-2.034-3.42-2.906-.54-.381-1.571-1.153-2.211-.621-.78.631-.15 2.415.02 3.186.42 1.884.07 3.938 1.241 5.572.51.691 1.04 1.242 1.09 2.154.05.822-.27 1.644-.3 2.465-.07 1.834-.06 3.708.97 5.271.51.772 1.15 1.544 1.11 2.526-.03.891-.61 1.643-1.53 1.292-1.27-.481-2.531-4.018-4.171-1.663-.24.351-.33.812-.39 1.232-1.34-.06-2.23-.881-3.381-1.453-1.31-.641-2.6-1.082-3.82-1.914-1.23-.851-2.27-1.884-3.431-2.805-.88-.692-2.86-1.063-3.05-2.325-.27-1.634 1.68-3.027 1.59-4.78-.86-.291-1.54-.421-2.44-.511-.76-.08-2.021-.992-2.631-.161-.44.602.12 1.544.19 2.195.24 1.984-1.71.661-2.43-.03s-1.96-1.363-2.01-2.485c-.05-1.193.9-1.724 1.9-1.884 1.52-.261 2.39-.1 2.82-1.744.4-1.493.06-3.016-1.01-4.158-.77-.832-4.441.05-4.331-1.494.06-.761 1.531-1.142 1.861-1.823.51-1.022-.4-1.934-1.1-2.586-.69-.641-1.191-1.112-1.591-1.984-.39-.882-.71-1.573-1.61-2.014-.83-.411-1.53-.491-2.17-1.233-.71-.811-1.16-1.753-2.151-2.274-.83-.451-1.77-.622-2.6-1.073s-1.49-.881-2.47-.651c-2.241.531-2.841 2.185-3.781 3.978-.8 1.514-2.71.922-4.161 1.053-1.33.12-3.33.621-4.51-.151-.77-.501-1.321-1.743-2.231-1.984-.84-.22-1.74.822-2.39 1.263-.97.651-2.11 1.302-2.921 2.164-1.22 1.303-.27 2.505.28 3.888.631 1.554.941 2.846 1.971 4.219 1.18 1.543 1.62 2.956-.36 4.008-1.55.832-3.351 1.363-4.971 2.055-1.6.681-3.441.912-4.871 1.944-1.11.791-2.3 2.545-3.84 1.954-.64-.251-1.131-.852-1.761-1.153-.8-.39-1.68-.461-2.55-.461-1.86 0-3.571.101-5.301-.751-1.04-.521-1.54-1.413-1.25-2.535.2-.742.74-1.423.28-2.155-.79-1.272-2.991-1.172-4.231-1.112-.84.04-1.67.13-2.49.341-1.65.42-3.121.871-4.831.531-1.73-.351-3.43-.952-5.101-.02-1.56.861-2.26 2.565-3.62 3.627-1.28 1.002-3.441.501-4.571 1.553-1.24 1.173 1.62 2.826 1.85 3.969.31 1.563-1.82.741-2.49.471-1.34-.532-2.451-.582-2.551-2.405-.04-.692.09-1.443.441-2.055.4-.711.77-.992.49-1.884-.23-.751-.8-1.192-1.221-1.803-.65-.952-.36-3.387-1.81-3.618-1.76-.29-.68 2.746-.38 3.437.85 1.924-.97 2.014-2.32 2.014-.77.01-1.27-.13-2.001-.36-.77-.231-1.51-.121-2.28-.271-.36-.07-.63-.21-.84-.411-.79-.781-.53-2.395-.43-3.507-1.68.21-1.64 1.934-2.921 2.565-1.73.862-.79-1.934-2.27-1.593-1.8.411-6.181 5.992-2.04 5.812 1.95-.09 2.59-2.896 4.71-2.194.47.15.961.41 1.241.811.16.221.24.491.21.802-.1.962-1.1 1.513-1.881 2.024-.16.11-.31.211-.44.311-1.23.972-.62 2.946-2.37 3.487-1.71.521-1.9-2.375-3.341-2.966-.75-.301-1.62-.331-1.88.571-.32 1.092.62 1.844.98 2.736.96 2.355-2.08 1.643-3.09 2.315-.46.3-.32.911-.45 1.412-.14.572-.41 1.063-.85 1.453-.841.722-2.011.792-3.061.782-1.99-.01-3.751-.391-5.071 1.423-.48.661-.95 1.403-1.29 2.135-.29.621-.37 1.453-.73 2.034-.65 1.042-2.55 2.274-3.831 2.074-.68-2.195 2.321-3.638 3.151-5.351.5-1.022 0-2.004.41-3.046.54-1.403 1.67-1.544 2.9-2.155.94-.461 2.191-1.333 2.451-2.415.23-.972-.44-2.104.19-2.956 1.38-1.844 5.171.351 5.911-2.435.16-.601-.02-.982.35-1.563.26-.421.69-.742.98-1.143.64-.862 1-2.004 1.97-2.585.8-.471 2.251-.631 2.311-1.864.05-.852-1.281-1.673-1.711-2.455-1.5-2.776 2.731-2.345 3.761-3.568.68-.801.75-1.934 1.97-2.144 1.551-.271 1.831-.03 2.181-1.804.21-1.022-.03-2.124.94-2.725.33-.211.99-.421 1.38-.301.13.04.49.431.49.451.37-.05.66-.671.78-1.002.24-.631.34-1.022.34-1.694 0-.461-.12-.962.2-1.302.18-.191.39-.061.58-.161.48-.26.84-.701 1.321-.942 2.01-1.022 3.33-2.224 2.58-4.689-.37-1.203-.33-2.295-.98-3.397-1.3-2.215-6.361-1.634-6.071-5.071.11-1.353 1.05-1.052 1.73-.311.44.481.45.411 1.05.602.47.14.61.43 1.01.611 1.061.471 1.311-.982 1.341-1.834.09-2.265-1.581-3.607-2.261-5.582-.32-.921.17-2.134-1.01-2.445-1.29-.34-1.43.912-1.35 1.874.05.581.32 1.072-.44 1.163-.7.09-1.28-.752-1.57-1.263-.801-1.313.08-1.964-.07-3.297-.06-.511-2.361.301-2.631.321-.6.06-.97-.13-1.26-.651-.59-1.073-.12-2.476-.8-3.548-.45-.721-.6-1.804-1.1-2.435-.68-.842-1.891-.23-2.701.1-1.93.792-3.35 1.954-5.451 2.355-2.13.421-3.72-.351-5.721-1.012-.75-.25-2.02-.361-1.88.842.13 1.082 1.76 1.403 1.67 2.605-.16 1.814-4.07 1.804-5.32 1.463-4.161-1.112 6.651-8.998-1.281-8.026-.89.11-1.78.28-2.68.36-1.34.131-1.43-.32-2.33-1.102-1.141-1.012-3.011 1.203-3.761-.521-.6-1.393.21-2.355 1.55-2.646 1.33-.29 2.691-.811 3.151-2.304.38-1.263-.21-2.355-1.46-2.676-1.151-.3-2.201-.04-3.021-1.092-.79-1.022-1.11-2.425-2.56-2.726-1.521-.32-1.821.862-2.321 1.964-.57 1.303-1.59.952-2.55 1.704-.97.771-.28 2.224-.99 3.166-.83 1.083-2.351.531-3.451.942-2.67.982-1.31 4.169-2.92 5.863 2.24 1.252-1.231 1.623-1.161 2.886.031.631 1.021 1.062 1.251 1.653.3.762-.18 1.293-.29 2.014-.21 1.323 1.19 2.034 2.1 2.746.57.451 2.84 2.054 1.19 2.595-1.26.411-3.13-1.192-4.331-1.563-1.34-.411-2.59-1.112-4-1.243-1.02-.1-3.171-.641-4.041 0-1.14.832.12 2.556.76 3.317.71.842 3.441 2.245 2.381 3.668-.82 1.082-2.151-.511-2.901-.902-.78-.401-2.27-1.202-3.12-1.082-.64.1-1.821.671-2.341 1.092-.81.671-.36 1.734-1.01 2.475-.69.782-1.84.311-2.64.892-.38.271-.5.712-1.01.802-.46.09-.951-.241-1.391-.351-.84-.22-2.17.17-2.89-.23-1.24-.702.46-1.544.1-2.375-.34-.792-2.03-.632-2.68-.642-1.151-.02-1.681-.29-2.701-.741-.78-.341-1.88-.772-2.69-.341-1.02.551-1.15 1.172-2.481.932-.65-.12-2.35-.601-1.99.782.29 1.112 2.11.551 2.47 1.633.44 1.363-1.54 1.052-2.22 1.072-1.13.04-2.02.852-2.76 1.654-.31.33-.601.881-1.131.711-.47-.14-.52-.952-.98-1.162-.9-.411-1.87.651-2.53 1.102-.91.631-1.79.752-2.831.361-.9-.341-1.57-1.213-2.49-.461-.84.671-1.01 1.733-2.24 1.874-1.551.17-3.111-.221-4.681.26-.92.291-1.86.842-2.711 1.313-1.06.591-1.3 1.122-1.84 2.134-.53 1.023-1.31 1.093-2.36 1.093-.76 0-2.211-.291-2.831.3-1.11 1.062.72 1.473 1.381 1.764 2.49 1.102-.931 3.136-2.211 3.617-2.69 1.013-3.32-2.194-5.681-1.994-.28 3.217 2.161 4.089 3.431 6.554.8 1.543-.25 2.465-1.02 3.698-.7 1.112.07 1.914.4 2.986.32 1.042-.19 1.663-.25 2.645-.05 1.233 1.09 1.173 1.71 1.884 1.9 2.225-8.221 6.384-8.631 3.277-.16-1.232 2.22-2.675.61-3.788-1.711-1.172-3.111.471-4.601.972-1.98.662-4.811.221-6.811-.12-2.26-.381-4.401.01-6.651-.18-2.2-.191-3.871-1.694-5.961-2.215-1.86-.461-4.401-.561-5.961.752-3.421 2.856-1.65 7.696-2.88 11.363-.641 1.924-2.061 4.84-.651 6.744 1.171 1.583 3.421 3.016 5.211 3.718 3.121 1.222-.11 3.427.9 5.722.531 1.212 1.881 1.753 2.521 2.906.57 1.032.51 2.204.5 3.347 0 1.152.13 2.295-.29 3.387-.45 1.172-1.37 2.074-1.99 3.146-1.361 2.375-.331 5.512.01 8.067.27 2.034.66 4.79-.751 6.413-.83.963-1.67 1.794-2.26 2.937-.68 1.302-.69 1.884-.12 3.176.61 1.383-.72 2.115-.47 3.377.15.802 1.03 1.103 1.59 1.523.6.441.99.952 1.29 1.654.951 2.285.811 4.509-2.19 4.319-2.08-.12-3.58-2.285-3.621-4.289-.03-1.523.02-2.896-.34-4.399s-.89-2.946-1.33-4.429c-.71-2.395 2.161-4.219 3.221-6.093.7-1.253 1.03-2.716 1.45-4.079.15-.511 1.12-2.856.45-2.805-.44.04-1.32 1.232-1.64 1.523-.73.661-1.5 1.363-2.391 1.793-1.56.752-1.99-.23-1.6-1.683.4-1.543 1.2-2.946 1.59-4.509.3-1.203.421-2.506 1.411-3.347 1.05-.892 2.47-.852 3.68-1.363 1.25-.521 1.861-1.644 2.141-2.936.81-3.848-3.181-2.936-5.691-3.498-3.481-.781-3.511-4.278-4.391-7.185-1.13-3.677-3.431-6.944-6.881-8.718a7.7 7.7 0 0 0-3.941-.851c-.31.01-.61.04-.92.08-.87.12-2.98.32-3.39 1.302-.681 1.644 4.07 6.003.72 7.065-2.151.672-3.321-1.804-4.281-3.267-.43-.641-.54-1.994-1.27-2.244-.79-.271-1.911.511-2.661.711-1.22.311-2.32-.331-2.87 1.233-.37 1.032-.26 2.435-.08 3.497.41 2.475 1.7 5.161 3.77 6.634 1.191.842 2.691 1.483 3.421 2.816.64 1.182.66 2.565 1.4 3.727.33.511 2.361 2.185 2.091 2.836-.45 1.063-3.361-.32-3.901-.661-1.52-.962-1.7-2.255-2.35-3.778-.611-1.403-2.001-1.693-3.341-2.084-1.32-.381-2.43-.772-3.28-1.884-.791-1.032-1.631-1.984-2.461-2.996-2.36-2.886 1.22-4.209 1.05-7.105-.09-1.393-.81-2.706-.41-4.109.56-1.974 2.771-2.725 4.221-3.798 1.67-1.232.54-3.898 1.06-5.601.64-2.075 1.41-3.678.77-5.893-1.03-.17-2.23 1.634-2.84 2.385-1.06 1.333-.5 2.846-1.02 4.349-.541 1.544-1.871 2.776-3.051 3.838-.7.642-1.3 1.363-2.13 1.824-1.921 1.083-4.031.211-5.911 1.083-1.09.511-1.57 1.653-2.16 2.615-.671 1.102-1.861 1.263-2.921 1.934-1.75 1.112-.53 1.994.43 3.026.98 1.062 1.12 2.696.71 4.049-.21.691-.56 1.312-.55 2.064 0 .701.33 1.353.42 2.044.27 2.145-.06 6.063-1.73 7.606-1.63 1.513-4.071 2.044-4.991 4.269-.43 1.042-.53 2.184-.94 3.227-.45 1.152-1.27 2.044-2.05 2.986-.74.902-1.131 1.653-1.04 2.846.08 1.192.34 2.164-.261 3.277-.51.941-1.98 2.114-1.84 3.296.16 1.283 1.94 1.002 2.851 1.093 1.42.15 1.79.831 2.66 1.823.92 1.053 1.87.682 3.041.231 1.18-.461 2.43-1.032 3.56-.16.86.661 1.23 1.773 2.1 2.425.831.631 1.851.831 2.551 1.653.79.922.86 2.185 1.52 3.177.73 1.122 2.11 1.463 3.04 2.375 1.051 1.052.811 2.104.281 3.347-.47 1.102-.521 1.823-.43 3.006.08 1.112-.321 1.884-.781 2.866-.42.892-.61 2.094-1.28 2.826-.93 1.022-1.9-.511-2.67.881-.49.902-.49 2.145-.51 3.147s.22 1.864 0 2.856c-.23.952-.36 1.653.52 2.325 1.42 1.082 4.55.26 5.181 2.224.3.942.04 1.524.66 2.435.47.692.91 1.383 1.28 2.145.5 1.012 2.12 5.171-.19 4.82-2.05-3.036-2.761-7.255-6.551-8.668-1.43-.531-3.321-1.012-4.151-2.425-.84-1.413-.78-3.307-.9-4.9-.12-1.634 1.15-2.596 2.03-3.758 1.751-2.325 3.241-4.56 2.331-7.616-.64-2.154-.88-4.179-1.14-6.403-.281-2.285-1.581-2.866-3.711-3.107-2.1-.23-4.451-.661-6.551-.471-1.86.161-3.301 1.513-4.271 3.047-1.25 1.984-1.17 4.068-.96 6.323.21 2.315.35 5.01-1.42 6.794-1.53 1.533-3.871 1.693-5.591 2.926-2.11 1.493-3.151 4.008-4.661 6.043-3.01 4.068-8.161 4.178-12.522 5.762-1.56.561-3.11 1.974-4.751 2.164-1.83.22-3.7-1.313-5.28-2.074-.78-.381-1.541-.802-2.391-1.012-.81-.201-1.67-.181-2.38-.672-1.29-.882-2.1-2.104-3.081-3.297-.95-1.172-2.05-2.244-2.88-3.507-.81-1.253-1.11-3.587.33-4.569 1.54-1.053 2.58 1.683 3.141 2.675.95 1.664 2.04 2.756 3.7 3.668 1.74.962 3.651 2.204 5.681 2.325 2.21.14 3.111-1.323 3.751-3.217.6-1.754 1.51-1.744 3.22-1.784 2.14-.05 3.501-.791 4.661-2.625 1.12-1.764 2.04-3.878 4.101-4.71 1.44-.581 3.29-.17 4.29-1.613 1.27-1.854.78-4.43 1.52-6.474.751-2.044 2.791-2.265 4.421-3.327 3.911-2.515-.12-7.345-.37-10.752-.14-1.904.51-3.227 1.59-4.72 1.311-1.804 1.851-3.698 2.381-5.842.5-2.014 1.47-3.036 2.67-4.62 1.38-1.823 1.19-3.998 1.57-6.132.38-2.095 1.691-2.345 3.121-3.578 1.62-1.393 1.51-3.788 1.57-5.752.07-2.114-.08-3.718-.71-5.742-.34-1.112-.81-2.585-.58-3.778.37-1.934 2.44-1.733 3.871-2.204 1.45-.481 2.32-1.864 2.93-3.197.83-1.804 2.1-3.397 3.02-5.171.991-1.914 1.901-3.908 2.331-6.042.48-2.415.8-6.874-1.48-8.538-1.111-.812-2.621-.711-3.921-.852-.57-.07-1.14-.18-1.69-.36-.96-.321-1.791-.862-2.581-1.493-.3-.241-.47-.532-.59-.902-.1-.311-.06-.922-.38-1.133-.34-.23-1.01.221-1.28.431-.6.441-1.09 1.213-1.78 1.503-.27.121-.55.171-.811.321-.35.2-.58.521-.88.782-.44.37-.92.641-1.33 1.052-.3.29-.57.581-.83.922-.58.741-1.07 1.543-1.62 2.304a14.8 14.8 0 0 1-4.021 3.828c-1.72 1.093-2.86 2.486-4.161 4.049-2.75 3.317-6.931 4.189-10.951 5.03-1.02.221-2.251.541-2.921 1.423-.71.932.64 1.523.49 2.505-.15.922-1.62.993-1.62 1.824 0 .441.54.632.84.862.41.311.61.601.65 1.122.07 1.012-.3 1.844-.98 2.546a7.5 7.5 0 0 0-1.48 2.164c-.43.952-.11 1.964-.46 2.926-.27.742-.91 1.634-1.49 2.155-.74.671-1.851.932-2.741 1.363-.74.37-1.5.611-1.96 1.342-.35.562-.52 1.263-.56 1.924-.05.642.28.972.65 1.483.95 1.343.9 2.716 1.11 4.289.22 1.594 2.581.091 3.121 1.453.25.632-.34 1.844-.69 2.335-.461.652-1.191 1.103-1.531 1.854-.38.852-.36 1.804-.32 2.716.04.751-.1 1.844.22 2.495.34.691.9 1.212 1.14 1.984.25.782.19 1.593-.06 2.365-.58 1.844-1.96 3.477-3.55 4.519-1.12.742-3.091 1.744-4.381.862-1.32-.902-1.23-3.287-1.5-4.69-.28-1.493-.92-2.745-1.48-4.128-.62-1.533-.91-3.207-1.721-4.66-.85-1.523-2.18-2.655-2.88-4.289-.28-.661-.43-1.313-.55-1.974-.11-.611-.21-1.232-.39-1.854-.34-1.162-1.23-2.084-1.54-3.257-.291-1.102.06-2.815-.571-3.747-.22-.321-.63-.451-.88-.772-.32-.421-.39-1.002-.64-1.473-.89-1.653-1.48-3.297-2.66-4.77-.72-.892-1.77-1.573-2.641-2.315-.95-.811-2.28-.882-3.03-1.844-.94-1.192-1.9-2.354-2.871-3.527-.7-.842-1.22-3.036-2.23-3.467-.96-.411-2.08.822-2.91 1.172-.961.411-2.101.311-2.971.962-.92.692-.99 1.854-1.48 2.806-.44.832-1.64 1.764-1.04 2.756.56.912 2.36 1.132 1.71 2.525-.61 1.293-2.69 2.275-3.761 3.167-.89.741-1.59 1.222-2.67.511-.83-.551-1.26-1.533-2.33-1.654-1.071-.12-2.581.441-3.161 1.383-.56.912-.22 2.145-1.14 2.866-2.53 1.984-3.261-2.385-1.45-3.828.91-.721 3.09-.781 3.57-1.924.4-.942-.78-1.743-.41-2.725.28-.752 1.75-1.253 1-2.045-.56-.591-2.78-.982-3.6-1.072-1.09-.12-1.67.682-2.611 1.062-1.11.441-1.58-.33-2.57-.691-1.35-.471-2.69.15-4.001.421-1.29.27-1.49-.431-2.32-1.303-.81-.852-1.52-1.794-2.37-2.615-.941-.902-1.861-1.173-2.971-1.744-2.12-1.072-4.391-2.385-6.891-1.503-.74.26-1.31.661-1.64 1.373-.38.821-.4 1.763-1.28 2.274-1.901 1.103-1.031-2.936-1.441-3.878-.74-1.673-2.77-1.002-3.59-2.274-.32-.501-.55-1.814.01-2.225.53-.391 1.8.12 2.38.231.35-1.053.62-2.806 1.64-3.428.44-.27 1.001-.19 1.481-.39.68-.271 1.11-.862 1.66-1.313.57-.461.97-.641 1.68-.421.46.14 1.11.822 1.62.641.551-.19.481-.851.26-1.292-.35-.692-1.11-.912-1.83-.972-1.47-.131-2.72.03-4.18-.381-1.211-.341-2.181-.892-3.311-1.393-.81-.361-2.44-.732-3.281-.321-.96.471-.67 2.906-1.51 3.107-.52.12-.68-1.103-.8-1.453-.29-.882-.61-1.584-1.55-1.874-1.85-.561-4.421.511-6.061-.712-.76-.561-1.34-1.272-2.18-1.763-1.201-.712-2.771-.582-4.011-.131-1.8.652-3.281.602-5.181.191-.89-.191-1.83-.191-2.65-.652-.64-.36-1.22-1.052-1.641-1.663-.63-.922-1.81-3.147-2.94-1.213-.48.832-.5 3.237-2.01 2.476-1.401-.712-2.891-2.395-4.611-2.325-1.8.07-3.181 2.024-4.481 3.056-1.84 1.463-4.901 2.305-7.231 2.084-2.33-.22-4.641-2.555-6.011-4.349-1.77-2.324-.07-4.038.67-6.313.69-2.154-1.53-5.271.24-7.074.93-.952 2.661-.882 3.881-.972 1.36-.111 2.86-.411 4.221-.161 1.31.241 2.18 1.163 3.04 2.105.67.731 1.58 2.044 2.7 2.024 2.161-.03 3.021-4.079 3.091-5.702.05-1.172-.12-2.325.05-3.497.19-1.333.81-2.526 1.09-3.838.59-2.706-2.76-4.88-4.581-6.083-.94-.621-1.54-1.132-1.7-2.285-.12-.801.11-2.355-.64-2.916-.81-.611-1.34.441-1.54 1.133-.6 2.184.08 3.848-1.7 5.601-1.451 1.423-2.541 2.656-3.641 4.399-.56.892-1.22 2.075-2.24 2.476-.921.36-1.791-.091-2.691-.241-1.96-.331-2.73 1.623-4.461 2.154-.89.271-1.77.381-2.14 1.373-.36.962-.06 2.175-.09 3.177-.05 1.794-.24 4.399-2.1 5.191-.9.381-1.991.35-2.631 1.192-.53.682-.47 1.644-1.23 2.165-.8.551-1.92.411-2.76.912-.8.471-1.25 1.352-2.111 1.753-.11.05-.23.1-.35.131-.33.1-.69.15-1.03.19-.27-.862.15-1.443-.65-1.974-.67-.461-1.53-.491-1.5-1.533.02-.952 1.09-1.002 1.85-1.343 2.801-1.223-1.54-4.149-2-5.562-.3-.902.06-1.944-.32-2.816-.4-.891-1.38-1.092-2.261-1.142-1.56-.09-3.11.12-4.66.301-1.051.12-2.151.671-3.171.33-2.26-.751-3.86-2.856-6.421-2.785-1.59.04-3.12.36-4.721.3-1.46-.05-3.04-.32-4.45.211-2.861 1.082-2.591 5.21-3.671 7.615-1.3 2.876-3.45 4.64-6.621 3.307-3.02-1.262-2.56-4.279-3.07-7.014-.24-1.293-.771-2.265-1.821-3.067-.42-.32-2.83-1.382-2.74-1.994.07-.561 2.39-1.012 2.83-1.543.97-1.162-.06-2.545-.36-3.768-.36-1.493 2.051-7.455-1.67-6.082-.98.36-1.56 1.493-2.67 1.152-.971-.291-2.211-1.864-3.301-1.032-1.07.822-.5 3.267-.74 4.439-.26 1.283-1.3 2.104-1.69 3.337-.26.802-.29 1.663-.35 2.485 1.66.331 3.83 1.032 2.46 3.046-.95 1.393-2.52 3.087-3.881 4.069-.88.641-2.06.872-3.11.561-1.41-.411-1.53-1.533-2.111-2.695-.51-1.013-1.22-1.674-1.48-2.836-.27-1.203-.27-2.435-1.2-3.377a.6.6 0 0 1-.07-.081c-.66-.621-1.42-1.062-.84-2.024.53-.882 1.58-1.292 2.05-2.264.78-1.594 1.31-3.828.36-5.392-.47-.791-1.07-1.383-.85-2.355.23-1.032.58-1.713.51-2.835-.06-1.043-.26-1.924.83-2.415 1.051-.481 2.291-.502 3.371-.942 1.82-.752 3.751-1.834 4.011-3.979.2-1.623-.25-4.84 2.28-4.539 1.09.13 2.17.912 3.31.621.861-.22 1.231-1.042 1.941-1.483 1.6-.982 3.21-.391 3.89-2.605 1.161-3.818-.4-8.217 1.671-11.805 1.17-2.014 2.39-3.678 2.98-5.992l.27-1.063c.39-1.513.8-3.006 1.39-4.459.19-.451.761-2.114 1.471-1.964.81.17.65 2.245.63 2.776-.1 2.595-1.24 5.141-.62 7.736.28 1.152.8 2.194 1.33 3.237.33.641.53 1.102.27 1.803-.32.852-.76 1.564-.77 2.506-.01 1.042.47 1.843.97 2.715 1.12 1.974-.55 3.708.04 5.692.29 1.002 1.24 1.603 1.86 2.385.84 1.072 1.08 2.375 1.22 3.698.12 1.252.17 2.535.651 3.717.47 1.173 1.23 2.265 1.49 3.518.23 1.082.8 1.693 1.34 2.655.42.732.56 1.584.94 2.335.71 1.393 1.95 2.355 3.161 3.277 1.48 1.132 2.83 2.746 4.44 3.668.73.41 1.841.501 2.661.641 1.01.18 2.02.311 3.04.331 1.68.04 3.251-.321 4.901-.582 1.17-.18 2.33-.11 3.501-.16 1.13-.05 2.12-.361 3.16-.772 1.01-.4 2.04-.701 2.71-1.623 1.091-1.483 1.431-3.427 2.391-4.99.88-1.443 1.81-2.395 2.06-4.149.29-2.044.15-4.139.29-6.193.13-1.874.24-3.768-.19-5.611-.37-1.554-.62-2.726-.44-4.36.17-1.583-.06-3.166.08-4.759.13-1.514.45-2.997.5-4.51.05-1.323-.05-2.635.08-3.958.13-1.413.16-2.766.07-4.179-.07-1.192.11-2.154.46-3.287.31-1.002.29-2.004.33-3.046.03-1.152.16-2.375-.42-3.427-.54-.982-1.29-1.844-1.82-2.836-.73-1.373-1.8-2.655-2.32-4.108-.37-1.043.03-2.476-.861-3.267-.47-.421-2.7-.782-2.57-1.473.07-.391 1.01-.832 1.29-1.062.42-.351.89-.792.85-1.383-.07-1.063-1.39-1.754-1.81-2.666-.48-1.032-.33-2.435-.06-3.497.3-1.173 1.03-1.894 1.56-.411.27.782.36 3.257 1.381 3.487.96.211 1.82-1.593 2.11-2.254.58-1.303.9-2.937.32-4.299-.55-1.283-1.73-1.764-3.03-1.864-.871-.06-2.061.16-2.571-.772-.24-.431-.08-.852-.03-1.303.09-.691.1-1.423.01-2.114-.1-.812-.68-.922-1.43-.832-1.29.161-2.601 1.513-3.911 1.123-1.42-.431-2.05-1.974-3.04-2.936-.92-.902-2.021-1.574-3.161-2.145-.84-.42-1.97-.591-2.7-1.132-.89-.662-1.6-1.453-2.801-1.493-1.09-.04-2.39.661-3.31 1.202-.49.29-.9.621-1.17 1.142-.19.361-.23.852-.57 1.113-.791.631-2.471-.1-3.351-.23-2.16-.301-4.221.09-5.551 1.963-.82 1.163-.95 2.415-.83 3.798.11 1.283.06 2.526-.09 3.808-.21 1.824-1.16 3.417-2.01 5.001-.78 1.433-2.761 2.284-4.241 2.695-1.46.401-3.11.792-4.621.511-1.39-.26-2.63-.721-4.06-.711-.72 0-1.451-.01-2.091.381-.66.4-1.35.911-1.93 1.403-.66.571-1.26 1.182-1.91 1.763-.27.231-.53.461-.82.672-.68.521-1.261.982-1.751 1.683-.99 1.393-1.07 2.756-1.29 4.389-.23 1.664-1.52 2.716-2.56 3.888-1.1 1.233-2.131 1.934-3.821 2.105-2.53.26-4.461-.602-6.321 1.573-.79.932-1.57.651-2.5 1.222-.99.612-.87 1.854-1.671 2.415-.4.281-1.03.411-1.51.461-.4.041-1 .071-1.4-.01-.57-.11-.63-.511-1.08-.751-1.31-.692-1.18.621-1.12 1.523.09 1.223.26 2.425.38 3.648.18 1.713-.34 3.507-2.361 3.457-1.51-.03-3.86-1.453-4.73.571-.721 1.673 1.17 3.497-.621 4.84-1.69 1.263-3.91.581-5.83.782-1.991.21-2.401 1.683-3.051 3.357-.98 2.565-.21 5.02-.49 7.696-.26 2.495-1.34 4.93-3.451 6.343-2.58 1.723-5.59 2.034-8.601 1.984-3.341-.06-6.441-.551-9.731-.952-1.251-.16-2.481-.17-3.711-.511-2.921-.802-5.661-1.463-8.661-1.934a60 60 0 0 0-3.571-.411c-1.69-.16-3.371-.311-4.991-.631-2.02-.401-3.88-1.343-5.971-1.493-2.29-.161-4.67-.602-6.941-.501 1.47 1.132 7.681 3.166 3.071 4.469-1.391.391-3.311.04-2.761 1.794.24.771.61 1.352.64 2.194.02.631-.3 1.323-.2 1.944.21 1.323 1.821 1.964 2.481 3.067.73 1.222.95 3.066.66 4.459-.3 1.433-1.971 3.457-3.651 2.705-1.53-.681-.7-2.996-.83-4.278-.21-2.005-1.53-3.027-3.38-3.448-1.981-.451-2.561-.932-2.491-3.126-.73-.571-1.57-.551-2.58-.551-1.251 0-1.511-.261-1.481-1.564-2.59.021-5.05-.15-5.09 3.157-.01 1.112.45 2.836-.96 3.096-1.751.321-1.851-1.322-2.131-2.485-.32-1.292-1.22-1.473-2.47-1.543-1.66-.1-1.63.501-2.421 1.613-.2.291-.41.471-.64.592-.73.401-1.53.1-2.3.621-.86.581-1.21 2.034-2.12 2.696-1.171.841-2.541.701-3.831 1.082-2.24.661-1.4 2.405-2.32 4.048-.991 1.754-2.801 2.856-4.061 4.389-1.24 1.514-2.28 1.273-1.75-.851.4-1.604 1.07-2.957 1.26-4.62-3.861-.06-8.711-.431-9.962 4.139-.58 2.114-1.36 3.136-3.67 3.156-2.421.02-2.711.381-3.141 2.796-.37 2.014-1.14 3.898-2.62 5.361s-3.201 1.082-4.941 1.874c-1.89.852-1.31 2.886-1.24 4.58.08 1.853-.33 3.627.76 5.27 1.14 1.714 2.54 2.275 1.61 4.52-1.01 2.445-1.34 3.537.22 5.832 1.22 1.804 1.43 3.397 1.911 5.461.41 1.824.55 2.736-.871 3.488-.21.11-.44.22-.72.32-.86.331-1.68.541-2.22 1.353-.47.722-.46 1.684-1.02 2.355-1.3 1.543-3.371.23-4.791 1.283-.62.451-.93 1.393-1.37 2.014-.55.751-1.21 1.333-1.88 1.964-1.301 1.232-2.651 2.685-3.641 4.199-1.12 1.723-.3 3.176-.21 5.05.07 1.613-.44 3.167-1.24 4.54-.95 1.643-2.081 2.866-1.14 4.81.92 1.914 1.4 2.324.25 4.258-.16.271-.3.542-.43.812a8.3 8.3 0 0 0-.531 1.423c-1.98.681-7.201 2.325-8.821.361-.89-1.072-.7-3.067-1.07-4.359-.39-1.363-1.1-2.876-2.241-3.778-3.4-2.686-4.43 3.036-6.691 4.279-1.27.701-2.82.741-3.95 1.713-.96.812-1.72 2.165-2.261 3.287-.68 1.423-1.03 3.167-1.18 4.74-.28 3.006 3.331 2.565 5.181 3.838 2.55 1.764 4.281 4.499 6.111 6.965 1.19 1.603 2.64 2.705 3.031 4.789.44 2.295-.391 3.257-2.001 4.68-1.64 1.453-1.29 2.846-1.62 4.51-.06.32-.15.651-.28.992-.75 1.964-2.991 1.473-4.611 1.212-1.36-.22-5.291-.411-5.021 1.944.11.942 1.331 1.624 1.931 2.225.82.842 1.3 1.774 1.71 2.866.72 1.884 1.58 3.627 1.39 5.682-.14 1.533-.33 3.487-1.31 4.759a3.16 3.16 0 0 1-1.07.912c-2.361 1.233-4.691-.24-5.251 3.287-.42 2.716.9 4.109 1.73 6.464.77 2.154.25 4.579 1.08 6.684.961 2.435 3.191 2.274 5.331 2.805 1.551.381 4.621 1.524 3.971 3.618-.64 2.044-3.061 2.605-3.201 4.93-.13 2.305.29 4.229 2.091 5.672 1.93 1.543 1.86 3.126 2.13 5.471.23 2.045 1.48 2.976 2.32 4.71 0 .01.01.02.02.04.841 1.754.5 3.738.33 5.592-.16 1.824-.05 3.076-.95 4.239-.27.35-.62.691-1.1 1.032-1.72 1.242-3.62 2.335-5.191 3.798-.98.922-1.41 3.427-3.15 2.655-.94-.421-1.41-1.794-2.611-1.723-1.06.06-1.51 1.262-2.05 1.984-.61.821-1.57 1.423-2.07 2.314-.63 1.113-.08 2.345-.52 3.428-.5 1.222-1.25.551-2.1-.03-1.1-.752-1.37-.812-2.331.16-.74.741-1.34 1.693-2.47 1.112-.8-.411-1.42-1.653-1.93-2.365-1.481-2.014-2.211-3.026-4.811-2.846-1.03.071-2.06.261-3.041-.19-1.18-.541-1.97-1.714-3.19-2.205-1.88-.751-4.291.862-4.301 2.977 0 2.475 2.73 3.747 4.09 5.411.86 1.052 1.39 2.866.46 4.048-1.6 2.065-2.5-.621-3.93-1.112-.72-.241-1-.211-1.5-.842-.28-.371-.63-.942-1.05-1.303-.16-.13-.32-.23-.49-.29-.65-.211-1.14.321-1.68.581-.59.301-1.301.651-1.981.281-.48-.261-.51-.912-.79-1.333-1.13-1.734-2.22-3.798-3.88-5.031-.35-.26-.921-.641-1.261-.16-.38.521-.07 1.273-.09 1.864-.02.661-.52 1.132-.96 1.563-.24.241-.5.481-.74.722-.19.19-.42.411-.52.671-.2.501.38.902.69 1.203.42.41.55.771.47 1.372-.11.792-.35 1.554-.5 2.335-.24 1.203.18 2.465-.36 3.608-.42-.15-.69-.351-.83-.782-.16-.481-.29-1.022-.3-1.533 0-.25.03-.501.1-.742.04-.16.13-.35.11-.521-.05-.34-.59-.3-.82-.24-.49.11-.84.501-1.23.782-.5.37-1.061.631-1.661.781-.34.09-1.02.261-1.26-.12-.21-.321.04-.772-.14-1.122-.24-.481-.78-.321-1.02.06-.28.461-.49.751-1.02.922-.53.17-.91-.03-1.41-.261-.34-.16-.671-.341-1.021-.471-.5-.18-.79-.04-1.01.381-.19.361-.47.731-.91.721-.38 0-.61-.07-.94.211-.63.521-.78 1.673-1.51 2.024-.43.21-.69.06-1.03-.21-.281-.211-.641-.191-.891-.421-.49-.441-.33-1.253-.66-1.774-.15-.24-.7-.541-.99-.441-.41.13-.28.772-.63.982-.6.361-.52-.601-.42-.902.16-.511.02-.701-.17-1.202-.17-.451-.33-.812-.86-.892-.24-.03-.47.03-.71-.04-.36-.11-.69-.361-1.03-.521-.331-.141-.651-.191-.521-.591.12-.371.54-.752.79-1.043.83-.982.97-2.365-.45-2.816-.94-.3-2.08-.45-3.03-.12-.48.161-.98.521-1.24.982-.51.942.04 2.185.17 3.167.07.551.16 1.072.39 1.583.17.411.4.792.49 1.233.22 1.022-.41 2.004-.9 2.836-.23.39-.37.871-.32 1.322.06.471.44.702.59 1.123.15.411-.02.952-.21 1.322-.17.341-.33.532-.36.922-.03.401-.18.782-.21 1.173-.02.401.21.801.26 1.212.08.662.14 1.363.09 2.035-.04.571-.08 1.152-.15 1.723-.1.842-.04 1.624.19 2.445.24.852.3 1.744.31 2.636.01.681.18 1.393.27 2.074.08.581.1 1.162.19 1.744.15.972.5 1.934.57 2.916.15 1.894.36 3.737.7 5.611.22 1.233.07 2.516.03 3.758-.03.962-.21 1.844-.37 2.796-.08.451-.21.892-.29 1.343-.09.491-.23 1.042-.25 1.533-.03.521.18 1.032.11 1.563-.03.221-.13.411-.16.631-.05.351 0 .862.09 1.203.08.301.31.521.49.782.51.721.99 1.453 1.47 2.194.55.842 1.32 1.503 2.07 2.165.79.681 1.44 1.533 1.96 2.435.39.671.84 1.383 1.19 2.104q.135.27.24.541c.88 2.175 1.17 4.51 1.681 6.774.34 1.503.89 2.926 1.61 4.279.34.642.7 1.233 1.21 1.764.77.792 1.31 1.563 1.91 2.495.73 1.142 1.521 2.325 2.391 3.367.34.411.7.822 1.05 1.253.48.601.94 1.222 1.31 1.874.59 1.042.97 2.615 1 3.807.02.562-.13 1.083-.07 1.644.07.802.31 1.583.46 2.365.23 1.172.11 2.335.46 3.487.01.06.04.11.05.17.45 1.574.43 3.257.891 4.83.48 1.634 1.1 3.317 2.06 4.73.9 1.323 2.15 1.874 3.69 2.175.731.14 1.331.27 2.031.551.54.21 1.28.2 1.68.671.31.371.55.912.76 1.463.16.401.29.812.42 1.143.39.982.52 2.044.98 3.006.29.601.68 1.152 1.061 1.704.3.44.59.891.82 1.362.32.702.38 1.564.52 2.315.14.772.1 1.654-.04 2.515a13 13 0 0 1-.34 1.524c-.36 1.272-1.37 2.054-1.83 3.286-.42 1.103-.55 2.746.39 3.608 1.37 1.242 1.86 3.116 2.54 4.82.36.912.71 1.844.91 2.816.17.811.05 1.643.14 2.475.23 2.124.3 4.269.21 6.403-.06 1.243.13 2.395.24 3.618.13 1.443-.02 2.876.44 4.269.67 2.034 2.551 3.457 4.691 3.627 2.63.211 5.271-.04 7.912.321 1.16.15 2.34.15 3.5.351.79.14 1.52.43 2.34.45.1-.731.07-1.473.19-2.194.11-.661.32-1.313.41-1.964.07-.531 0-1.012.12-1.533.37-1.493.44-2.997.75-4.48.35-1.603.43-3.236.44-4.86 0-1.022-.04-2.094.26-3.076.29-.952.721-1.573.681-2.626-.03-.761.02-1.212.51-1.813.21-.261 1.08-.702.93-1.073-.1-.24-.69-.25-.89-.4-.38-.281-.39-.712-.39-1.153 0-.912.11-1.743 1.19-1.753.5 0 .96.25 1.45.25.56 0 1.06-.301 1.49-.611.871-.612 1.151-1.403 1.671-2.275.42-.711.86-1.423 1.52-1.924.74-.571 1.57-1.393 2.471-1.623.72-.181 1.58.15 2.21-.351.57-.451.4-1.503-.39-1.593-.75-.091-1.51.821-2.23 1.012-.621.17-2.411.09-2.871-.441-.78-.882.72-1.934 1.45-1.984 1.01-.06 2.181.451 2.821-.582.46-.751.59-1.713.88-2.545.39-1.122.93-2.475 1-3.667.06-.962-.23-1.934-.3-2.896-.07-1.023-.12-2.055-.51-3.007-.39-.962-1.09-2.144-.23-3.076.88-.972 2.82-.892 4-.962.901-.05 1.791-.05 2.691-.05.55 0 1.09-.01 1.64-.04 1.93-.12 3.611-.742 5.191-1.854 1.23-.862 2.49-1.223 3.901-1.684 1.31-.43 2.55-.651 3.68-.23.48.18.95.481 1.4.932.42.431.531.661 1.141.581.82-.1 1.46-.511 2.33-.431 2.01.181 3.311 1.984 5.391 1.593 1.62-.3 2.88.622 4.201 1.383 1.08.622 2.46 1.073 3.71.942.84-.09.79-.431 1.43-.771.64-.331.99.18 1.391.631.84.922 1.93.732 3.03.521.73-.13 2.51-.28 2.85-1.002.03-.05-.07-.341-.06-.441.02-.15.26-.21.271-.351.06-.701-.321-1.202-.801-1.633-1-.892-1.43-2.205-2.24-3.277-.99-1.303-2.1-3.257-1.98-4.95.06-.832.3-1.694 1.28-1.623.79.06 1.92 1.172 2.7.962.58-.161.94-1.403 1.061-1.925.24-1.002.2-2.024.32-3.036.14-1.162.29-2.395.58-3.527.28-1.092 1.02-2.165 1.5-3.187.67-1.443 1.26-2.836.92-4.489-.33-1.593-2-1.643-2.71-3.066-.4-.802-.64-1.724-1.261-2.395-.67-.742-1.46-.983-2.31-1.373-.84-.381-1.64-1.153-1.83-2.115-.22-1.202 1.22-1.763 1.94-2.405.93-.811 2.13-1.593 2.35-2.936.18-1.132-.62-2.024-1.08-2.966-1.22-2.435 1.741-3.257 3.481-4.008.77-.331 1.49-.752 2.2-1.183 1.07-.641 2.13-1.302 3.291-1.783 2.48-1.013 5.411-1.834 5.501-5.011.05-1.673-1.091-5.221.72-6.333 1.52-.932 4.34.611 5.941.782 2.41.25 4.31-.592 6.371-1.704.04-.02.08-.04.12-.07 1.25-.682 3.21-1.563 4.47-.431 1.861 1.673 1.06 5.992.89 8.137-.12 1.413-.54 2.796-.37 4.219.08.681.24 1.262.841 1.623.7.421 2.16.862 2.94.511.57-.25 1.11-.741 1.66-1.062 1.871-1.052 2.401-2.706 2.611-4.8.07-.701-.12-1.543.08-2.225.25-.831 1.14-1.353 1.86-1.723 2.25-1.173 3.871-.291 5.821.922 1.69 1.052 3.871 1.994 5.391.33.96-1.042 1.77-2.224 3.38-1.853 1.331.3 2.411 1.192 3.391 2.074 1.14 1.022 3.48 2.044 5.001 1.343.77-.361 1.19-1.183 2.02-1.504 1.02-.4 2.26-.39 3.2.181.831.501 1.321 1.152 2.211 1.343.14.03.29.05.45.05.56.01.93.09 1.22.3.27.211.47.551.66 1.093.45 1.272.62 2.635.97 3.938.22.832.05 1.673.67 2.335.631.691 1.751.621 2.611.411.71-.171 1.15-.782 1.76-1.173 2.11.03 6.771-.06 5.621 3.407-.55 1.634-1.41 2.726-1.31 4.57.09 1.663.57 2.425 2.13 2.826 1.01.26 1.45.721 2.201 1.352.77.642 1.56 1.083 2.2 1.874.75.942 1.58 1.984 1.75 3.217.16 1.132-.19 2.325-.19 3.467 0 1.132-.43 2.185-.44 3.317-.02 1.082.43 2.024-.18 2.996-.57.912-1.41 1.674-1.95 2.616-.45.801-.32 1.843-.1 2.715.28 1.093 1.34 1.584 2.41 1.724 1.6.2 1.74-1.453 2.16-2.636.28-.781.801-2.535 1.601-2.956 1.53-.811 1.8 2.415 1.76 3.227-.11 2.946-.56 5.511 1.23 8.107.77 1.112 1.44 2.124 2.821 2.445 1.11.25 2.27.21 3.4.381 1.76.26 3.771-.201 5.561-.191 1.35 0 2.63-.15 3.961.161 1.06.25 2.13.671 2.66 1.693.29.561.39 1.163.61 1.744.33.882.86 1.673 1.15 2.545.41 1.243 1.311 1.343 2.431 1.543.71.131 1.24.261 1.93.04.57-.19 1-.32 1.62-.35 1.321-.06 2.771 0 3.881.831 1.52 1.143 1.37 3.267 1.17 4.961-.21 1.803-.74 3.888-.02 5.641.5 1.223 1.59 1.804 2.481 2.676.82.812 1.25 2.024 2.17 2.726 1.17.902 2.54.28 3.78-.091 4.331-1.292 4.351 4.39 6.711 6.634 1.161 1.103 2.761.942 4.241 1.002 1.64.07 3.371.481 5.001.181 2.35-.431 5.131-3.217 4.091-5.752-.74-1.794-1.951-3.357-2.701-5.151-.78-1.864-.98-3.758-1.17-5.752-.2-2.134-.71-4.229-.94-6.353-.08-.782.02-1.213.27-1.393.33-.24.92-.03 1.71.401 3.021 1.653 6.311 2.886 9.492.781 1.32-.881.86-2.445.55-3.757-.31-1.283-1.01-2.816-.46-4.129.72-1.703 3.65-1.182 5.091-1.162 1.33.01 2.61.561 3.95.591 1.17.02 2.01-.11 2.931.832 1.15 1.182.78 2.545 1.36 3.888.3.701 1.3 1.282 2.05.962.99-.431.78-1.744.46-2.536-.24-.591-.6-1.132-.81-1.733-.17-.491-.17-1.042-.34-1.523-.33-.892-1.25-.812-1.92-1.373-.68-.561-1.11-1.654-1.421-2.465-.44-1.143.291-1.534 1.361-1.634 1.15-.11 2.08.141 2.02-1.343-.05-1.152-.4-2.324-.94-3.326-.37-.672-.89-1.504-.35-2.255.49-.672 1.46-.531 1.98-1.203.48-.611.95-2.745 2.05-2.505 1.131.241.901 2.836 1.391 3.648.71 1.152 2.36.902 3.49 1.282 1.03.351 1.651.992 2.421 1.694 1.47 1.333 3.79.551 5.59.792 1.131.16 1.971.18 2.961.771 1.03.611 2.1 1.133 3.251 1.483.5.151.98.321 1.45.491.62.221 1.22.441 1.85.662.91.3 1.35.721 1.75 1.593.41.892.91 1.403 1.901 1.283 1.26-.151 2.38.34 3.6.521.99.15 1.53.06 2.411.671.43.301.79.541 1.28.742 1.03.411 2.25.651 3.34.791 1.16.151 1.891.08 3.041-.13 1.14-.21 2.16-.852 3.34-.992 1.341-.16 2.431-.07 3.621.631 1.19.722 2.33 1.253 3.68 1.704 2.751.902 5.421 2.054 8.182 2.926 1.63.511 3.35.782 5.061.852.63.02 1.2-.171 1.82-.151.79.02 1.58.291 2.36.391.49.06.76.06 1.09-.23.48-.421.661-.992 1.451-1.012.76-.01 1.29.471 2.09.28.78-.19 1.5-.561 2.29-.721 1-.201 1.831.19 2.661.601.64.311 1.28.631 1.99.691.46.04.9-.15 1.36-.14 1.23.04 2.111.892 2.681 1.904.61 1.062 1.07 2.345 2.11 3.056.85.582 1.93.882 2.93.992.831.081 1.961 0 3.001.091 1.48.12 2.79.581 2.82 2.355.04 2.204-1.7 3.737-1.11 6.032.37 1.423 1.07 2.846.94 4.359-.14 1.573-1.71 1.704-2.69 2.636-1 .942-3.581 5.07-1.61 6.162 1.09.612 2.55.501 3.74.772 1.25.281 1.911 1.293 3.051 1.764 1.01.41 2.51.491 2.52-.892 0-.381-.25-1.112.15-1.393.44-.291.97.24 1.2.571.601.822.881 2.515.681 3.507-.171.892-2.081 2.385-1.341 3.217 1.03 1.152 2.131-.761 2.781-1.222.96-.672 1.32.36 1.63 1.122.35.882.88 2.004 1.77 2.475.55.291 1.371.491 1.971.631 1.4.321 3.5-.24 3.97 1.704.5 2.074-2.77 1.753-3.86 2.645-.971.792-2.571 1.684-2.611 3.117-.05 1.824 2.191 1.603 3.271 1.052.57-.291 1.31-.962 1.99-.731.75.26 1.13 1.453 1.32 2.134.35 1.172 1.27 3.096 2.901 2.515 1.63-.571.39-3.387 2.82-3.237.89.051 1.17.471 1.61 1.153.31.481.991 1.413 1.681 1.102.61-.27.36-1.002 1.2-.982.89.01 1.69.942 2.59.551.86-.371 1.01-.892 2.051-.601.44.12.97.19 1.43.15.8-.07.99-.571 1.5-1.152.71-.812 1.49-1.393 2.44-1.493.29-.03.601-.01.931.05 1.61.331 2.62-.201 4.02-.842 1.54-.721 2.641-.02 4.191.06 1.09.06 2-.33 3.05-.391.66-.04 1.561-.34 2.191-.26-.42 1.573-1.451 2.816-2.361 4.118-.78 1.113-1.35 1.253-2.46.461-.9-.641-1.5-.811-2.18.271-.741 1.162-.72 2.716-.12 3.938.51 1.032 1.4 1.794 1.9 2.856.6 1.283.75 2.696 1.71 3.788 1.11 1.263 1.991 2.175 2.651 3.778a42.483 42.483 0 0 1 1.77 5.211c.33 1.222.62 2.455.74 3.717.07.752.04 1.534.36 2.235.28.601.8 1.042 1.08 1.643.5 1.073.35 2.385.5 3.528.17 1.353.39 2.695.62 4.038.48 2.696 1.051 5.391 1.511 8.097.32 1.834.66 3.678.71 5.552.06 2.304-.04 4.609.1 6.914.14 2.355.51 4.7.6 7.055.04 1.072.02 2.154.05 3.236.01.612-.1 1.774.28 2.315.61.862 1.75-.521 2.42-.842 1.19-.561 2.751-.19 3.801-1.002 1.33-1.032.89-3.006.67-4.429-.26-1.673.52-2.285 2.16-2.415 1.651-.13 3.641.341 4.051 2.185.26 1.172-.28 2.405.48 3.447.73 1.012 1.7 1.653 1.97 2.976.18.882-.04 1.704.36 2.545.51 1.072 1.471 2.295 2.611 2.696 1.4.491 3.07.13 4.531.471 1.47.331 3.18 1.293 4.69.621 1.361-.611 1.671-2.224 2.881-3.036.36.32.71.842 1.19.992.57.18.63-.211.9-.611.69-1.043 1.68-.261 2.44.22 1.211.762 2.651.792 3.831 1.603 1.3.892 2.561 1.824 3.661 2.967.59.611.94 1.172 1.23 1.823.14.301.27.632.41.982.45 1.133.8 1.484.18 2.616-.57 1.022-.78 2.254-1.13 3.377-.47 1.533.43 2.295 1.77 2.836 1.47.601 2.64 1.553 3.991 2.385 1.25.781 1.83 1.292 2.32 2.725.5 1.493.48 2.836.5 4.4.01 1.533.28 3.176 1.15 4.469.8 1.182 1.971 1.403 3.241 1.794.9.28 1.65.741 2.61.791 1.21.06 2.461-.1 3.651-.26 1.85-.241 3.99-1.243 5.761-.231 1.77 1.022 2.65 2.235 3.49 4.089.56 1.222 1.281 3.357 2.761 3.387 1.14.01 1.09.501 1.37 1.573.26.972 1.48 1.353 2.39 1.463 1.421.17 3.421-.681 4.761-1.092.7-.211 1.31-.702 1.99-.982.881-.361 1.811-.351 2.721-.602 1.84-.501 3.78-.561 5.651-.831.89-.131 1.7-.171 2.6-.131.91.041 2.06.181 2.931-.17 1.48-.611 2.16-1.393 2.67-2.976.35-1.102.53-3.177 1.61-3.908.17-.12.35-.201.56-.241.71-.14 1.541.05 2.241.181 1.02.2 2.11.25 3.16.29 1.82.07 2.921-.842 4.261-1.914.77-.621 1.75-.992 2.57-1.583.55-.391 1.26-.892 1.881-1.152.76-.331 1.53-.111 2.31-.051 1.6.141 3.17-.801 4.661-1.342 1.78-.632 3.53-1.343 5.341-1.894.95-.281 1.93-.301 2.91-.441 1.13-.16 2.18-.561 3.291-.792.72-.15 1.84-.23 2.07.682.19.771-.45 1.863-.66 2.595-.16.561-.56 1.513-.35 2.094.33.882 1.33.521 1.94.181 1.18-.642 2-1.183 3.391-1.163 1.25.02 2.35.101 3.58-.16 2.18-.451 4.591-.541 6.691.281.69.27 1.41.45 1.95.992.781.791 1.421 1.934 1.861 2.946.39.892.67 1.733 1.34 2.455.55.591 1.26.952 1.85 1.493 1.1 1.032 1.981 2.275 3.031 3.357 1.57 1.613 4.56 2.164 6.691 1.874.92-.12 1.8-.591 2.73-.662.9-.08 1.571.401 2.261.912 1 .752 1.98 1.483 3.16 1.914 1.92.702 3.851.09 5.741.572 1.51.39 2.76 1.483 4.311 1.843 2.57.592 4-1.413 5.571-3.106.87-.942 1.81-1.834 2.99-2.365.8-.361 1.75-.441 2.47-.952 1.791-1.303 1.931-4.88 1.561-6.834-.41-2.145-2.181-3.668-2.741-5.782-.51-1.874-.23-3.718-.32-5.622-.09-2.044-.32-3.898 1.08-5.521 1.531-1.744 3.231-3.387 5.101-4.74 1.23-.892 2.181-1.984 2.711-3.427.32-.882.3-2.906 1.06-3.518.14-.12.3-.19.47-.21 1.46-.16 3.591 3.177 4.791 3.617 1.22.451 2.6.181 3.85.461 1.52.331 2.621 1.233 3.771 2.225.97.832 1.87 1.563 3.17 1.653 1.141.081 2.261-.28 3.401-.14 2.84.321 5.311 2.275 8.021 3.087 2.581.771 5.851.721 7.931 2.675 2.101 1.974 1.411 5.441 2.051 8.017.6 2.415 2.22 4.76 3.5 6.854.73 1.182 1.561 2.636 2.981 2.906 1.68.321 3.11.11 4.611 1.203.85.621 1.76 1.623 2.84 1.823 1.07.201 2.19-.19 3.27-.03.631.09.941.321 1.581.07.51-.19.9-.711 1.36-.962 1.2-.631 2.66-.17 3.851-.801.95-.511 1.62-1.353 2.65-1.834 2.76-1.293 5.671-2.505 8.761-2.485 1.611.01 3.041-.421 4.671-.201 1.88.251 3.771-.24 5.621.111 2.03.38 3.09 1.342 4.011 3.146.93 1.804 2.12 2.976 3.91 3.928 1.04.551 2.231.812 3.411.582.96-.171 1.61-.802 2.61-.872.44-.04.83-.02 1.18.05 1.601.3 2.431 1.543 3.491 2.966 1.48 1.994 4.651 3.197 6.861 4.139 2.04.861 4.561.38 6.681.13 2.22-.261 4.421-.672 6.431.551.76.461 2.01 1.182 2.941.902.83-.241 1.49-1.032 2.42-1.273 1.29-.33 2.07.381 3.18.852 2.411 1.052 5.701.471 7.702-1.223 1.07-.901 1.99-1.653 2.91-2.705 1.78-2.024 3.261-3.948 6.161-3.768 2.841.17 5.301.491 7.851-.942 2.301-1.293 3.211-3.367 3.811-5.862.62-2.565.32-5.522 3.391-6.363 1.9-.521 2.57-1.283 3.82-2.836.97-1.223 2.07-1.644 3.461-2.225 2.47-1.042 5.38-1.463 7.851-.17 2.66 1.393 4.291 3.778 7.541 3.838 1.76.04 3.421-.211 4.581-1.614.92-1.112 1.53-1.833 2.98-2.194 2.361-.581 4.811.15 7.011 1.042 2.371.962 4.911 1.433 7.252 2.605 1.13.562 2.16 1.153 3.44 1.303 1.36.15 2.951-.06 3.801-1.262.79-1.103.7-2.616 1.39-3.788 1.52-2.586 5.021-3.147 7.321-4.81 2.941-2.135 3.931-5.712 2.2-8.979-.68-1.283-1.58-2.365-1.97-3.788-.48-1.784-.52-3.748-.52-5.581 0-3.899 1.07-7.707 2.1-11.454 1.001-3.678 3.401-6.684 3.781-10.572.33-3.437-.35-7.346-2.76-9.941-1.621-1.744-4.691-2.505-5.681-4.76-1.261-2.886 1.3-4.97 3.44-6.333 2.891-1.824 5.571-3.978 8.221-6.103 1.361-1.312 2.741-2.846 4.341-3.898.19-.12.38-.24.57-.35 2.161-1.213 4.451-.091 6.641-.872 2.341-.842 2.751-3.949 5.181-4.77 2.22-.752 5.001.21 7.121.942 2.151.741 5.301 2.615 7.361.811.661-.581 1.041-1.513 1.951-1.763 1.01-.271 2.15.411 3.09.701 2.241.702 4.951-.33 6.951.942 1.981 1.243 2.501 3.548 4.891 4.249 1.01.301 1.99.491 2.781 1.253 1.06 1.022 1.11 3.086 2.51 3.787.75.381 1.64.01 2.36.391 2.371 1.263.54 4.229 2.181 5.582.36.29 1.06.28 1.48.511.43.23.66.541.99.872.58.571 1.16 1.192 1.51 1.934.98 2.164.78 3.517 3.511 3.627 1.76.06 1.86.441 2.26 2.075.29 1.222.91 3.256 2.235 3.707.79.271 1.12.401 1.81 1.042.95.882 1.56 1.534 1.66 2.866.22 2.676 1.86 4.5 3.68 6.414 2.3 2.415 5.49 3.377 8.6 4.038 1.2.261 2.16 1.223 3.38 1.403 1.48.221 2.61-1.343 3.76-2.134 1.14-.772 2.09-1.113 3.35-.451 1.64.851 2.84 1.383 4.6.05 1.14-.872 1.84-1.463 3.35-.812 1.86.802 2.54 2.275 4.73 2.415 3.06.201 6.62-.31 9.57.712.37.12.66.3.9.511.61.521.9 1.272 1.35 2.074.62 1.112 1.64 2.044 2.47 3.016.71.832 1.78 1.303 2.3 2.275.68 1.283.01 2.876.87 4.048.81 1.103 2.13.692 3.32.832 2.21.251 2.8 2.305 4.52 3.327.66-1.794 1.51-3.217 3.18-4.209 1.93-1.142 4.22-1.593 6.07-2.896 1.8-1.262 2.36-3.056 2.97-5.08.74-2.465 1.96-4.409 3.86-6.113 1.7-1.523 3.88-2.716 5.15-4.67 1.17-1.803 1.6-3.968 2.82-5.782 1.14-1.683 3.6-4.86 5.85-5.05.84-.08 1.16.471 1.25 1.232.12 1.002-.18 2.365-.21 3.047-.08 2.846.81 5.11 2.66 7.235 1.41 1.623 2.71 2.886 1.99 5.18-.67 2.125-2.18 4.039-1.97 6.394.17 1.924 1.58 3.247 2.28 4.96.72 1.754.52 3.698.99 5.522.01.04.02.08.04.12.59 2.204 2.03 3.958 2.86 6.052.82 2.085.19 3.788-.56 5.772-.77 2.055-.8 3.728.05 5.762.84 1.994 2.04 4.349 1.02 6.504-.34.731-.79 1.192-.94 2.024-.23 1.273-.1 2.706-.1 3.998 0 .982-.24 1.874-1.15.982-1.06-1.032-1.11-3.226-3-3.186-1.18.02-2.35 1.062-3.07 1.904-.85.972-1.34 1.954-2.76 1.974-1.3.02-2.43-.471-3.39.731-1.27 1.594-.98 3.909-1.31 5.752-.21 1.203-1.03 1.684-1.88 2.435-.88.772-1 1.504-1.08 2.676-.08 1.253-.05 2.114.72 3.106.9 1.183 1.48 2.405 2.22 3.698 1.02 1.784 2.55 3.187 3.56 4.99.92 1.654 1.31 3.508 2.11 5.211 1.43 3.097 2.22 6.384 3.71 9.44 1.03 2.094.92 4.87-1.42 5.952-1.59.742-3.62.08-5.09 1.123-1.3.922-2.28 3.327-.57 4.329.73.431 1.62.35 2.4.541 1.46.34 2.67 1.222 3.98 1.844.51-1.804.31-2.656 2.53-2.756 1.39-.06 2.94.15 3.08-1.623.12-1.474.04-2.866.29-4.36.29-1.763-.34-3.978.83-5.301 1.37-1.533.53-2.795.75-4.679.81-.05 1.67.16 2.46.1 1.11-.08 1.28-.752 1.96-1.463 1.71-1.754 1.85.29 2.45 1.563.73 1.573 1.52 2.355 3.25 2.545 1.27.141 2.2-.801 3.19-1.503 2.02-1.423 4.73.571 6.28-1.092.88-.932 1.06-2.014 1.5-3.157.58-1.533 1.52-2.184 2.97-2.835 2.33-1.063 4.32-2.305 5.72-4.52 1.66-2.605 2.04-5.852 3.22-8.668 1.25-2.976 2.56-6.093 2.75-9.349.17-2.786.75-5.692.41-8.498-.22-1.824-1.33-3.698.29-5.171 1.69-1.533 2.82-1.874 1.96-4.389-.74-2.144-1.48-3.627-.78-5.982.83-2.726 2.36-5.271 3.05-8.027.81-3.267.73-6.934.83-10.251.07-2.465.21-4.92.36-7.376.16-2.795.33-5.601.38-8.397.05-2.605-.44-5.171-.88-7.686-.43-2.475-1.62-4.159-.48-6.664 1.16-2.545 1.7-6.143 1.13-9.069-.1-.511-.23-.992-.39-1.453-.4-1.082-1.05-2.004-1.33-3.146-.48-1.944-.1-3.918.22-5.862.27-1.664.35-3.297.56-4.951.32-2.455.65-5.942-.33-8.257-.39-.912-.89-1.713-1.06-2.716-.23-1.322-.17-2.505-.81-3.737-.67-1.293-1.83-2.235-2.47-3.528-.52-1.042-.47-2.264-.98-3.317-.56-1.172-1.61-1.423-2.48-2.254-.79-.752-.87-1.864-1.22-2.876-.4-1.143-.68-2.305-1.05-3.437-.36-1.093-.97-1.183-1.89-1.714-1.04-.611-1.63-1.623-2.47-2.465-1.32-1.313-1.59-3.367-2.55-4.92-.9-1.453-1.53-2.956-2.54-4.299-1.08-1.423-1.8-3.437-1.08-5.171.27-.641.96-1.323.55-2.204-.4-.852-1.55-.652-2.01-1.413-.7-1.173.66-2.355.94-3.387.34-1.233.6-3.177 0-4.36-.39-.741-.72-.941-.46-1.883.15-.532.54-.902.49-1.524-.1-1.072-.56-.801-1.32-1.182-1.41-.712-.5-2.245-1.89-3.036-1.2-.682-2.74-.281-3.86-.952-3.01-1.784.72-6.664-3.49-7.386-2.47-.421-1.1-1.743-1.87-3.497-.73-1.633-2.35-1.493-3.76-1.553-1.69-.06-3.06-1.143-4.81-.672-.86.231-1.08.562-1.91.161-.86-.431-1.72-1.353-2.42-2.014-.32-.291-.77-1.003-1.18-1.143-.74-.25-1.67.361-2.52.1-.78-.24-1.22-.881-2.04-1.032-.9-.15-1.86.03-2.78-.11-2.26-.331-3.22.561-4.73 2.034-1.68 1.644-3.41.511-5.32 1.173-2.38.841-.26 3.517.85 4.549 1.43 1.323 2.72 2.465 3.27 4.449.31 1.123-.55 4.941-1.86 2.866-.29-.451-.26-2.164-.97-2.194-.69-.04-1.03 1.804-1.24 2.244-.36.772-1.01 1.363-1.21 2.205-.22.882.26 2.034-.43 2.756-.65.681-2.04.801-2.83 1.423-.56.441-1.86 1.984-2.69 1.242-.89-.791.75-2.094 1.15-2.675.79-1.163.16-1.293-.38-2.315-.63-1.203 1.52-4.69-1.2-3.197-.77.431-1.71 1.423-2.66.852-.94-.561-.47-1.453-.05-2.164.45-.752 1.32-1.704.53-2.546-.67-.701-1.81-.32-2.48.151-1.81 1.282-1.95 3.296-1.13 5.2.56 1.283 3.19 2.756 1.92 4.239-.53.621-1.92.952-2.71.812-1.04-.181-.94-.722-.99-1.684-.08-1.332-.36-2.194-1.43-3.036-.85-.661-1.73-1.052-2.09-2.134-.39-1.203-.22-4.941-2.47-3.548-.82.511-1.24 1.403-2.17 1.794-.83.351-1.78.291-2.55.792-1.39.881-2.43 3.166-4.51 2.565-.55-.16-.8-.842-1.32-.972-1.12-.291-1.98 1.323-3.24 1.112-3.11-.521-1.47-4.118-1.36-6.163.19-3.507 3.14-3.597 4.7-6.152 1.52-2.476-.71-5.231-.26-7.797.2-1.162 1.16-1.342 1.57-2.314.43-.982.27-2.055.31-3.097.08-1.763 1.3-3.337 2.16-4.79.24-.641.69-1.282.85-1.944.23-.902-.03-1.844.06-2.745.12-1.163.44-2.315.57-3.478.15-1.373-.8-2.455-.97-3.778-.15-1.152-.34-3.126.02-4.238.4-1.243 1.36-1.483.84-2.957-.53-1.493-1.08-1.853-.34-3.336.69-1.383.42-2.496.48-3.989.05-1.192.68-1.683 1.12-2.705.5-1.143.06-2.415.58-3.548.57-1.232 1.35-2.315 1.31-3.758-.03-.962-.23-1.984 0-2.956.2-.892.89-1.453 1.25-2.264.44-.962.18-1.804.01-2.796-.34-2.185-.29-4.419-.76-6.584-.23-1.052-.45-2.004.18-2.956.64-.962 1.66-1.593 2.25-2.615 2.47-4.239-2.17-9.59-.69-14.18.33-1.032 1.04-1.894 1.42-2.916.4-1.072.72-1.964 1.34-2.926.57-.872 1.03-1.874 1.74-2.636.73-.781 1.47-1.252 1.93-2.274.97-2.155 2.37-3.588 4.38-4.79 1.41-.832 2.93-1.503 4.04-2.756 1.16-1.343 2.1-2.826 3.53-3.928 1.18-.922 2.78-3.267 4.14-1.423.81 1.092.86 3.106 2.19 3.718 2.08.952 2.75-1.423 2.36-2.967-.31-1.222-1.88-2.625-1.59-3.817.28-1.183 1.62-2.365 2.78-2.836.19-.081.38-.141.56-.171 1.07-.22 2.04-.471 3.14-.471.53 0 1.21.181 1.68-.17.81-.631.28-1.704.72-2.455.32-.551 1.07-.712 1.52-1.233 1.13-1.302 1.32-2.315 3.07-1.763 1.29.39 2.48.35 3.34-.822.6-.812 1.26-1.563 1.79-2.425-.8-.501-3.17-.361-3.59-1.112-.5-.922 1.25-1.904.76-3.057-.21-.501-.79-.731-.92-1.303-.14-.631.22-1.182.47-1.733.61-1.313.98-3.327 2.27-4.139 1.45-.912 3.19.231 4.61-.831 1.33-1.003 1.61-2.586 3.34-1.313 1.41 1.032 2.17 1.082 2.2-.952.01-1.463-.18-3.277 1.63-3.738 1.62-.421 2.32 1.483 3.83 1.593 1.83.131 2.45-1.974 3.74-2.815.88-.592 2.81-.832 2.98.571.13 1.152-1.06 2.926-1.86 3.607-1.13.932-3.04 1.233-3.76 2.596-1.71 3.266 5.63 2.184 6.96 1.623 2.61-1.102 1.93-4.349 1.53-6.524-.22-1.192.18-2.274 1.39-1.332.64.501 1.11 1.713 2.15 1.212 1.34-.631 1.34-3.317 1.12-4.499-.54-2.896.95-5.031 3.68-6.093.52-.21 1.49-.19 1.92-.461 1.06-.691.14-.822 0-1.683-.1-.722.41-1.103 1.05-1.473 1.28-.742 2.43-1.173 3.55-2.255 1.67-1.654-.01-1.954-1.27-2.866-1.28-.922-4.84-2.215-5.71-.04-.5 1.273-.33 2.124-1.8 2.696-2.58 1.002-3.31-.842-3.64-3.137-.17-1.203-.02-2.505-.42-3.668-.34-.982-1.12-1.553-1.65-2.405-1.3-2.124-1.04-5.281-1.37-7.696-.4-2.825-.43-5.491-.39-8.347.03-1.433-.06-2.706-.88-3.918-.72-1.082-1.35-1.794-1.39-3.167-.04-1.343.38-2.665-.06-3.978-.36-1.062-1.14-1.794-1.92-2.555-.67-.632-1.71-1.423-1.71-2.445 0-1.083 1.18-1.814 1.74-2.636 1.31-1.984.24-4.609 1.53-6.704 1.06-1.703 3.64-1.773 3.82-4.098.09-1.163.58-2.205.69-3.357.12-1.123.05-1.984 1.16-2.646 1.22-.731 2.11.01 3.24.491 3.64 1.563 2.56-2.375 2.26-4.519-.09-.611-.25-2.616.86-2.355.86.2 1 2.305 1.58 2.896.79.812 2.03.581 2.9 1.263 1.02.801.83 2.054.9 3.206.08 1.403.54 1.914 1.8 2.385 1.23.461 1.21.892 1.98 1.904 2.01 2.676 2.34-3.116 4.29-.751.69.841.16 2.064.83 2.906 1.65 2.104 2.2-1.113 2.59-2.165.58-1.613 1.54-3.597.47-5.181-1.44-2.134-3.2-3.998-3.2-6.724 0-3.497-.22-6.964-.57-10.451-.03-.271-.05-.642-.06-1.052-.03-1.093.05-2.476.41-3.157.77-1.433 1.85.802 2.78 1.092 1.14.351 2.44-.771 1.8-2.034-.44-.832-2.31-1.172-3.14-1.203-1.63-.06-2.09-.26-3.32-1.442-.94-.902-1.57-2.145-2.03-3.357-.63-1.694-.88-2.005-2.39-2.876-1.04-.602-2.5-2.155-2.42-3.468.05-.882.98-1.352 1.52-1.934 1.34-1.423 1.57-3.166 2.09-4.96.69-2.395 1.61-1.684 3.57-2.014 1.06-.181 3.06-2.034 2.75.31-.24 1.854-2.05 2.776-2.12 4.73-.06 2.035.3 3.979 1.22 5.782.85 1.674 1.68 3.518 3.57 4.099 1.63.491 2.82.761 4.05 2.044 1.23 1.263 2.04 2.215 3.66 2.966 1.85.852 1.93 1.934 1.84 3.868l-.06 1.383c1.17-.19 2.71.331 3.19 1.493.56 1.383-.38 2.886-1.09 4.019-1.6 2.535-1.57 5.01-1.98 7.956-.32 2.275-.19 4.289.69 6.424.38.931 1.31 1.372 1.81 2.274 1.15 2.115 2.44 5.291 2.59 7.716.07 1.233-.08 2.505-.02 3.748.13 2.585.52 5.151.41 7.796-.11 2.606-.77 4.82 1.3 6.905 1.53 1.533 3.28 2.615 4.32 4.609.62 1.203.57 2.656.57 3.978 0 1.463-.07 3.097.23 4.52.35 1.693.71 3.377.92 5.09.15 1.263.47 2.566.12 3.818-.39 1.353-1.59 2.305-1.86 3.688-.26 1.323.43 2.756-.46 3.928-.75 1.012-2.44.992-3.03 2.105-.55 1.022.17 2.735.98 3.427 1.11.922 2.66.441 3.84 1.152 1.23.752 1.02 2.165 1.4 3.377.37 1.153 1.35 1.964 1.57 3.167.23 1.242-.28 2.445.17 3.667.49 1.363 1.19 2.245 1.22 3.768.02 1.473-.16 2.565.89 3.718 1.89 2.094 3.34 4.539 4.96 6.874.81 1.173 1 2.666 1.85 3.798.22.291.46.531.73.742.96.771 2.19 1.172 3.25 1.793 2.62 1.513 4.02 4.299 6.16 6.354 1.33 1.272 2.36 2.906 3.72 4.108.7.621 1.51 1.112 2.34 1.543 1.66.842 3.43 1.163 5.1 1.894 1.18.511 2.25 1.313 3.17 2.245.96.952 1.68 2.355 2.7 3.197.67.561 1.55.781 2.28 1.432.74.662 1.36 1.534 2.21 2.075 1.36.862 2.69 1.483 4.11 2.255 1.25.691 2.65 1.773 3.76 2.755.95.842 2.28 2.075 3.49 2.485.97.321 2.01.391 2.99.662 1.05.3 2.07.842 2.73 1.713.56.742.81 1.664 1.53 2.315.84.772 1.77.832 2.8 1.132.94.281 1.82.993 2.59 1.564.98.731 1.7 1.713 2.34 2.745.46.742.75 1.774 1.38 2.385.81.782 2.26 1.203 3.25 1.744M1279.95 254.686c-.21-.282-1.21-.111-1.51-.091-1 .06-2.01.07-3 .161-.69.06-2.21.834-1.84 1.859.23.673 1.68.724 2.22.653 1.01-.14 2.2-.542 3.07-1.095.29-.181 1.35-1.085 1.06-1.477"/>
        <path d="M1186.58 25.97c.12.223.19.538.4.702.49.362.76-.713.8-1.122.02-.292-.05-.502-.11-.783-.07-.327-.11-.666-.27-.958-.15-.269-.3-.713-.6-.748-.29-.047-.49.304-.59.608-.19.584-.47 1.25-.07 1.788.14.187.32.315.44.526M1064.47 40.814c.51.735.83 1.53 1.05 2.394.23.914.32 1.917.78 2.752.85 1.52 2.93 1.38 3.71-.13.36-.695.4-1.51.51-2.264.13-.835.35-1.64.55-2.454.44-1.808.33-3.686.7-5.504.4-1.957.94-3.666.66-5.682a41 41 0 0 1-.29-3.12c-.06-1.003-.04-2.285-.6-3.169-1.16-1.808-3.33 1.123-4.26 1.818-1.36 1.003-3.08-.06-4.5.964-1.12.814-1.5 2.155-1.29 3.497.11.655.54 1.192.18 1.808-.42.735-.72 1.46-.89 2.295-.11.536-.31 1.192-.25 1.748.06.536.47.914.82 1.281 1.15 1.183 2.2 2.405 3.12 3.776M1053.99 109.508c1.28.678 3.76-.34 5.04-.34.92 0 2.06-.179 2.78-.848.88-.809.55-2.535.08-3.563-.6-1.328-2.05-3.314-3.4-1.916-.71.728-.95 1.876-1.71 2.555-.68.618-1.53.548-2.33.818-1.21.409-1.84 2.066-.74 3.074.08.08.18.15.28.21M1037.47 142.94a.92.92 0 0 0 .92-.922.92.92 0 0 0-.92-.922c-.5 0-.93.414-.93.922s.41.922.93.922M1036.08 144.784a.46.46 0 0 0 0-.923c-.26 0-.46.202-.46.461 0 .26.21.462.46.462M1025.94 130.952c.26 0 .46-.408.46-.928 0-.521-.21-.917-.46-.917s-.46.408-.46.917.2.928.46.928M1022.24 133.719c.26 0 .47-.207.47-.461a.466.466 0 0 0-.47-.461c-.26 0-.45.207-.45.461s.2.461.45.461M1018.1 132.796c.5 0 .92-.421.92-.923a.93.93 0 0 0-.92-.922c-.51 0-.92.421-.92.922s.41.923.92.923M1016.25 137.405a.93.93 0 0 0 .93-.922.93.93 0 0 0-.93-.922.922.922 0 0 0 0 1.844M901.555 165.126c-1.04-.174-1.783.022-2.212 1.328-.402 1.229-.183 2.187.324 3.264.516 1.109 1.145 1.577 2.151 1.762.568.109 1.521.087 1.757-.685.324-1.099.114-2.285-.035-3.384-.201-1.512-.778-2.089-1.985-2.285M906.037 172.572c.031.9.305 1.779.355 2.678.061 1-.192 1.849-.75 2.679-.365.559-1.136 1.319-.944 2.068.193.76 1.197.829 1.826.7.71-.15 1.086-.59 1.613-1.01a6 6 0 0 1 2.272-1.049c.741-.16 1.055.42 1.684.67 1.441.569 2.475-.92 3.388-1.759 1.329-1.229 2.577-2.438 4.494-2.349.842.04 1.734.1 2.465-.389.649-.43.882-1.139.456-1.809-.466-.749-1.339-1.239-1.957-1.849-.528-.509-.964-1.229-1.593-1.628-.649-.41-1.501-.42-2.232-.65-.973-.3-1.765-.879-2.617-1.429-1.44-.949-3.134-.33-4.757-.35-.852-.02-1.633.03-2.201.73-.589.729-.832 1.739-1.106 2.608-.213.699-.426 1.399-.406 2.138M866.398 161.117c.371.386.685.67.987 1.107.302.416.65.853 1.243.964.673.112 1.893.021 1.916-.751.035-.721-.929-1.127-1.382-1.614-.499-.528-.662-1.127-.674-1.807 0-.589.175-1.482-.395-1.919-.522-.406-1.324-.274-1.881-.721-.384-.304-1.022-1.553-1.638-1.441-1.173.223.128 2.72.337 3.238.406 1.005.697 2.102 1.498 2.934M879.162 179.985c-1.124.473 1.078 1.419 1.517 1.719 1.067.744 2.539.86 3.854.888 1.023.02.922-1.062.293-1.535-.675-.503-1.832-.454-2.641-.686-.922-.251-2.068-.811-3.035-.396M872.188 150.755c.347.179 1.03.317 1.183.723.163.456-.388 1.001-.622 1.338-.306.436-.755 1-.51 1.555.235.574 1.04.822 1.56 1.06.5.238 1.163.515 1.296 1.109.122.545-.235 1.12-.418 1.615-.459 1.199-.164 2.09.805 2.942 1.02.892 2.234 1.347 3.59 1.417 1.194.059 2.754-.407 3.784.346.826.605 1.459 2.13 2.601 2.209.469.03.826-.287 1.204-.505.561-.317 1.142-.456 1.795-.475.918-.03 1.55-.06 1.774-1.11.153-.753-.102-1.575-.387-2.348-.123-.336-.245-.663-.347-.96-.173-.506-.5-.842-.785-1.288-.357-.585.041-.951.408-1.417.112-.158.357-.554.591-.525.367.04.306.684.327.941.04.773.224 1.248.765 1.823.183.198.459.396.724.495.479.179.744-.267.999-.574.276-.327.653-.585.908-.921.316-.407.398-.961.663-1.397.286-.486.673-.931 1.173-1.209.734-.406 1.458-.564 1.826-1.377.295-.673.265-1.565.795-2.12.663-.693 1.336.367 1.897.743.52.337.938.278 1.55.317.296.02.459.08.725-.079.459-.277.907-1.07 1.234-1.496.295-.376.612-.772.816-1.208.234-.495.295-.951-.184-1.298-1.081-.753-2.927-.624-4.171-.594-.674.02-1.836.277-2.377-.129-.51-.376-.969-.723-1.53-1.05-.908-.535-1.927-1.06-2.386-2.051-.592-1.297-1.561-4.725.438-5.398.204-.07.888-.208 1.071-.109.469.277.235 1.159.112 1.555-.214.684.255 1.456.52 2.13.357.921.725 1.872 1.694 2.328 1.111.505 2.488.624 3.702.802 1.387.208 2.947.347 4.355.218.938-.089 2.336-.911 2.04-2.011-.194-.713-.622-1.387-.969-2.031-.378-.723-.286-1.258-.235-2.04.021-.416.072-.912-.183-1.268-.429-.595-1.081-1.12-1.143-1.853-.091-1.099.531-4.626-1.713-3.714-1.285.525-2.142 2.308-3.651 1.278a7 7 0 0 0-1.204-.684c-.561-.218-1.03.238-1.458.505-.592.377-1.153.733-1.683 1.199-1.092.941-2.234 1.664-3.723 1.773-1.703.119-3.294-.476-4.926-.862-.918-.218-2.234-.426-2.173.882.031.703.5 1.089.571 1.733.082.704-.244 1.457.072 2.14.255.555 1.295.654 1.836.832.632.208 1.499.565 1.642 1.288.132.654-.214 1.743-.653 2.249-.52.584-1.948.465-2.57.118-.592-.327-.99-1.04-1.51-1.476-.897-.733-1.805-1.585-3.029-1.723-.938-.109-1.866.218-2.794 0-.582-.149-.745-.377-1.061-.832-.378-.555-.959-.575-1.581-.674-1.591-.238-.918 1.209-1.55 2.09-.225.317-.572.535-.755.872-.276.485-.102 1.06-.092 1.585a3.8 3.8 0 0 1-.663 2.249c-.622.901-1.275 1.773.021 2.397M913.483 136.439c1.84-.201 3.381-1.336 5.211-1.489.845-.067 1.441.229 2.157.601.577.296 1.224.554 1.87.315.646-.248 1.163-.878 1.641-1.345.885-.869 1.531-1.966 2.505-2.73.895-.696 1.731-1.498 2.158-2.547.488-1.193.895-3.197.08-4.352-.706-1.002-1.84.172-2.576.525-1.173.563-2.376.048-3.579.41-1.403.42-1.691 2.023-2.765 2.825-1.213.897-2.695-.143-3.878-.573-1.163-.42-2.148-.257-2.953.687-.527.63-.766 1.394-1.014 2.138-.16.487-.378 1.527-1.035 1.603-.487.057-1.093-.42-1.61-.467-.577-.058-1.233.066-1.323.715-.099.716.408 1.451.825 1.995 1.104 1.45 2.427 1.889 4.276 1.689M904.314 110.617c.889-.272 1.385-1.753 1.257-2.613-.128-.824-.146-2.174-1.316-1.92-.53.114-1.094.78-1.146 1.324-.025.298.077.596.052.894-.034.316-.214.579-.291.877-.248.93.547 1.701 1.453 1.429M926.801 111.585a.93.93 0 0 0 .922-.928.92.92 0 0 0-.922-.917.92.92 0 0 0-.922.917c0 .509.415.928.922.928M922.656 106.051c.767 0 1.378-.411 1.378-.926 0-.514-.621-.918-1.378-.918s-1.388.412-1.388.918c0 .507.621.926 1.388.926M929.109 80.231c.25 0 .458-.41.458-.922s-.208-.922-.458-.922-.464.41-.464.922.208.922.464.922M825.359 226.397a.46.46 0 0 0 .461.461.467.467 0 0 0 .462-.461.466.466 0 0 0-.462-.461.466.466 0 0 0-.461.461M827.205 225.477c0 .259.203.461.461.461a.456.456 0 0 0 .461-.461.462.462 0 0 0-.922 0M826.737 217.637a.46.46 0 0 0 .466-.461.465.465 0 0 0-.466-.461.457.457 0 0 0-.456.461c0 .256.213.461.456.461M826.742 213.95a.463.463 0 0 0 0-.923c-.255 0-.461.2-.461.461s.206.462.461.462M829.51 213.026c.247 0 .461-.21.461-.461a.47.47 0 0 0-.461-.461.47.47 0 0 0-.461.461c0 .251.197.461.461.461M830.424 212.102a.47.47 0 0 0 .471-.461.46.46 0 0 0-.471-.461.45.45 0 0 0-.451.461c0 .25.207.461.451.461M831.815 209.337a.926.926 0 0 0 .922-.923.925.925 0 0 0-.922-.922.925.925 0 0 0-.922.922.92.92 0 0 0 .922.923M835.043 208.414a.46.46 0 1 0-.461-.461c0 .261.204.461.461.461M817.067 229.625c.496 0 .914-.208.914-.461s-.418-.461-.914-.461-.93.208-.93.461.418.461.93.461M814.754 229.625a.46.46 0 0 0 .461-.461.46.46 0 0 0-.461-.461.46.46 0 0 0-.461.461c0 .256.21.461.461.461M812.914 228.703a.46.46 0 0 0 .457-.461.46.46 0 0 0-.457-.461.465.465 0 0 0-.465.461c0 .254.21.461.465.461M811.071 226.858a.46.46 0 0 0 .457-.461.464.464 0 0 0-.457-.461.465.465 0 0 0-.466.461.46.46 0 0 0 .466.461M808.769 228.703c.503 0 .915-.202.915-.461 0-.258-.412-.461-.915-.461s-.929.203-.929.461c0 .259.413.461.929.461M788.473 216.714c.516 0 .922-.615.922-1.383 0-.769-.406-1.384-.922-1.384s-.922.615-.922 1.384.418 1.383.922 1.383M772.53 214.695c-.76-.176-1.672-1.084-2.452-.449-.821.653-.172 1.59.273 2.224.537.762-.344 1.425-.83 1.962-.142.166-.497.478-.396.732.112.263.689.38.943.4.425.029.831 0 1.246.107.203.059.405.146.598.215.355.127.537.371.831.575.273.186.496.44.79.596.385.205.73.175 1.125.244.881.126 1.51-.254 1.986-.957.547-.829 1.003-1.776 1.419-2.673.425-.908.354-1.747-.304-2.518-.608-.712-1.551-1.366-2.544-1.171-.912.176-1.712.947-2.685.722M769.569 181.672a.46.46 0 0 0 .461-.461.46.46 0 0 0-.461-.461.46.46 0 0 0-.462.461.46.46 0 0 0 .462.461M765.416 180.751a.923.923 0 1 0 0-1.847.923.923 0 0 0 0 1.847M764.035 177.981c.249 0 .461-.21.461-.467a.453.453 0 0 0-.461-.455.453.453 0 0 0-.461.455c0 .257.204.467.461.467M762.19 176.137c.257 0 .461-.2.461-.461a.455.455 0 0 0-.461-.461c-.258 0-.461.2-.461.461s.217.461.461.461M746.975 174.754c0 .254.408.461.922.461s.922-.207.922-.461-.426-.461-.922-.461-.922.207-.922.461M746.051 177.059a.927.927 0 0 0 .922-.922.92.92 0 0 0-.922-.922.92.92 0 0 0-.922.922.92.92 0 0 0 .922.922M746.514 173.371a.461.461 0 1 0 0-.922.461.461 0 0 0 0 .922M747.432 168.76c.256 0 .465-.407.465-.922s-.209-.922-.465-.922c-.257 0-.457.407-.457.922s.208.922.457.922M741.441 170.143c0 .254.416.461.923.461.506 0 .922-.207.922-.461s-.416-.461-.922-.461c-.507 0-.923.207-.923.461M739.598 167.377c0 .258.418.461.93.461.513 0 .914-.203.914-.461s-.41-.461-.914-.461c-.503 0-.93.203-.93.461M738.674 170.143a.463.463 0 0 0-.461-.461.457.457 0 0 0-.461.461c0 .258.204.461.461.461a.457.457 0 0 0 .461-.461M737.295 171.527a.463.463 0 0 0-.465.461.46.46 0 0 0 .465.462.453.453 0 0 0 .457-.462.457.457 0 0 0-.457-.461M741.907 155.85a.46.46 0 0 0 .457-.461.46.46 0 0 0-.457-.461.465.465 0 0 0-.466.461c0 .26.208.461.466.461M738.674 155.85c.513 0 .922-.203.922-.461s-.409-.461-.922-.461-.922.203-.922.461.417.461.922.461M739.135 153.084a.463.463 0 0 0 .461-.461.463.463 0 0 0-.461-.461.463.463 0 0 0-.461.461c0 .249.204.461.461.461M737.752 151.699a.48.48 0 0 0-.461-.461.48.48 0 0 0-.461.461c0 .25.231.461.461.461a.48.48 0 0 0 .461-.461M736.364 154.006a.463.463 0 0 0 .466-.461.463.463 0 0 0-.466-.461.455.455 0 0 0-.456.461.46.46 0 0 0 .456.461M717.465 165.533c0 .255.197.461.456.461a.46.46 0 0 0 .466-.461.46.46 0 0 0-.466-.461.454.454 0 0 0-.456.461M714.244 171.527a.463.463 0 0 0-.467.461c0 .259.211.462.467.462a.454.454 0 0 0 .456-.462c0-.258-.2-.461-.456-.461M712.854 173.824c0 .25.203.469.461.469a.46.46 0 0 0 .461-.469.45.45 0 0 0-.461-.453.46.46 0 0 0-.461.453M701.794 177.982a.93.93 0 0 0-.929.923c0 .504.414.922.929.922a.917.917 0 0 0 .916-.922.917.917 0 0 0-.916-.923M701.793 183.516c-.518 0-.928.207-.928.461 0 .253.41.461.928.461s.917-.208.917-.461c0-.254-.41-.461-.917-.461M699.942 183.977a.465.465 0 0 0-.467-.461.455.455 0 0 0-.455.461c0 .253.21.461.455.461a.474.474 0 0 0 .467-.461M699.476 189.969a.46.46 0 1 0 0-.922.46.46 0 0 0-.456.461c0 .248.205.461.456.461M698.098 188.128a.92.92 0 0 0 .922-.916.94.94 0 0 0-.922-.929.933.933 0 0 0-.922.929c0 .51.421.916.922.916M696.718 185.36a.46.46 0 0 0 .456-.461.463.463 0 0 0-.456-.461.47.47 0 0 0-.466.461c0 .252.21.461.466.461M693.486 184.899c0 .253.418.461.922.461.505 0 .923-.208.923-.461 0-.254-.404-.461-.923-.461-.518 0-.922.207-.922.461M697.174 190.894c.508 0 .922-.615.922-1.384s-.414-1.383-.922-1.383-.922.615-.922 1.383c0 .769.414 1.384.922 1.384M697.631 193.66c.769 0 1.388-.208 1.388-.461 0-.252-.619-.461-1.388-.461s-1.379.209-1.379.461c0 .253.618.461 1.379.461M693.948 189.971c.762 0 1.383-.41 1.383-.922s-.621-.922-1.383-.922-1.384.41-1.384.922.61.922 1.384.922M689.343 189.971c.765 0 1.379-.41 1.379-.922s-.624-.922-1.379-.922c-.754 0-1.388.41-1.388.922s.624.922 1.388.922M691.643 181.672c0-.513-.209-.922-.461-.922s-.461.409-.461.922.201.922.461.922c.259 0 .461-.42.461-.922M697.175 182.133a1.38 1.38 0 0 0-1.388-1.383c-.772 0-1.379.617-1.379 1.383s.623 1.384 1.379 1.384 1.388-.618 1.388-1.384M699.019 178.444c0-.257-1.036-.462-2.305-.462s-2.306.205-2.306.462c0 .256 1.036.461 2.306.461 1.269 0 2.305-.205 2.305-.461M690.721 179.362a.456.456 0 0 0-.461-.456.456.456 0 0 0-.461.456c0 .254.204.466.461.466a.457.457 0 0 0 .461-.466M688.412 180.751c.255 0 .465-.413.465-.923 0-.509-.21-.922-.465-.922-.256 0-.457.413-.457.922s.201.923.457.923M687.491 183.516c.762 0 1.383-.204 1.383-.461s-.621-.461-1.383-.461c-.763 0-1.384.204-1.384.461s.621.461 1.384.461M677.345 190.893a.462.462 0 1 0 .008-.924.462.462 0 0 0-.008.924M674.584 191.817a.46.46 0 0 0 .461-.461.457.457 0 0 0-.461-.461.457.457 0 0 0-.461.461c0 .255.201.461.461.461M672.275 192.28c0 .256.21.457.465.457a.46.46 0 0 0 .458-.457.47.47 0 0 0-.458-.466.47.47 0 0 0-.465.466M666.283 195.504a.46.46 0 0 0 .461-.466.454.454 0 0 0-.461-.456.46.46 0 0 0-.461.456c0 .252.207.466.461.466M665.363 198.27c.251 0 .458-.41.458-.922s-.207-.922-.458-.922c-.252 0-.465.41-.465.922s.207.922.465.922M662.596 197.348a.46.46 0 0 0 .461-.456.46.46 0 1 0-.461.456M660.748 195.504a.46.46 0 0 0 .461-.461.46.46 0 0 0-.461-.461.46.46 0 0 0-.461.461.46.46 0 0 0 .461.461M659.823 194.583c.249 0 .466-.412.466-.923 0-.51-.207-.922-.466-.922s-.456.412-.456.922c0 .511.197.923.456.923M657.061 196.426a.46.46 0 0 0 .461-.467.45.45 0 0 0-.461-.455.457.457 0 0 0-.461.455c0 .252.206.467.461.467M649.221 201.036a.926.926 0 0 0 .922-.922.926.926 0 0 0-.922-.923.926.926 0 0 0-.922.923c0 .505.415.922.922.922M649.223 207.031c0 .256.417.462.922.462s.922-.206.922-.462c0-.255-.417-.461-.922-.461s-.922.206-.922.461M646.455 226.397c0 .257.204.461.461.461a.457.457 0 0 0 .461-.461.457.457 0 0 0-.461-.461.457.457 0 0 0-.461.461M645.994 224.09a.46.46 0 0 0 .461-.461.463.463 0 0 0-.461-.461.464.464 0 0 0-.461.461c0 .253.2.461.461.461M640.458 222.248a.46.46 0 0 0-.456.461c0 .253.21.461.456.461a.47.47 0 0 0 .466-.461.465.465 0 0 0-.466-.461M638.158 218.559c0 .51.411.922.928.922a.913.913 0 0 0 .917-.922.92.92 0 0 0-.917-.922.93.93 0 0 0-.928.922M640.922 213.488c0 .252.206.462.461.462a.46.46 0 0 0 .461-.462.46.46 0 0 0-.461-.461.463.463 0 0 0-.461.461M640.463 209.338a.46.46 0 1 0 .001-.921.46.46 0 0 0-.001.921M638.157 213.948a.925.925 0 0 0 .922-.922.924.924 0 0 0-.922-.922.924.924 0 0 0-.923.922c0 .507.415.922.923.922M634.006 219.481c.259 0 .461-.416.461-.922 0-.507-.211-.922-.461-.922s-.461.415-.461.922c0 .506.211.922.461.922M630.777 220.403c0 .515.407.922.923.922a.915.915 0 0 0 .922-.922.921.921 0 1 0-1.845 0M635.389 212.104a.924.924 0 0 0-.922.922c0 .511.417.922.922.922a.924.924 0 0 0 .922-.922.924.924 0 0 0-.922-.922M634.467 210.26a.924.924 0 0 0 .922-.922.924.924 0 0 0-.922-.922.924.924 0 0 0-.922.922c0 .508.414.922.922.922M628.473 216.715c-.765 0-1.383.207-1.383.461s.618.461 1.383.461c.766 0 1.383-.207 1.383-.461s-.617-.461-1.383-.461M624.784 217.635c.764 0 1.383-.417 1.383-.922 0-.504-.619-.922-1.383-.922-.765 0-1.384.418-1.384.922 0 .505.619.922 1.384.922M630.78 177.059a.914.914 0 0 0 .922-.922.914.914 0 0 0-.922-.922.914.914 0 0 0-.923.922c0 .515.418.922.923.922M629.67 186.135c.333.21.748.21.986-.095.178-.229.119-.534.083-.791-.047-.286-.012-.591-.095-.877-.13-.505-.546-1.087-1.271-.763-.831.372-.261 1.258-.083 1.783.095.276.071.543.38.743M634.068 185.904c.604.431 1.409.562 1.993.03.352-.311.252-.642.181-1.053-.11-.682-.402-1.415-1.047-1.766-.312-.17-.745-.16-1.087-.271-.363-.12-.775-.341-1.178-.21-.685.22-.03 1.003.111 1.394.251.692.372 1.404 1.017 1.876M624.615 195.047c.428.203 1.134.068 1.608.126.706.087 2.013.753 2.418-.097.173-.348.208-.744.381-1.091.232-.454.845-.908.833-1.42-.011-.435-.335-.686-.856-.744-1.006-.096-2.07.85-2.799 1.304-.382.232-2.695 1.381-1.573 1.913M602.31 228.713c-.473-.049-.927.316-1.183.682-.217.296-.365.622-.611.898-.296.336-.671.623-.878 1.018-.454.849-.118 1.896.424 2.607.404.544 1.597 1.907 2.169.85.266-.504.493-1.037.612-1.6.108-.474.148-.879.098-1.354-.089-.78.75-2.982-.621-3.111M602.031 226.853c.256-.025.884-.075 1.034-.23.15-.149-.088-.571-.309-.646-.398-.137-1.397.081-1.477.41-.088.335.336.503.752.466M695.895 172.545c-.706.276-.945.785-1.313 1.339-.218.33-.497.562-.855.767-.357.206-.845.402-1.063.75-.488.759.954.75 1.421.732.627-.027 1.144-.277 1.591-.687.438-.402.925-.75 1.223-1.259.258-.419.408-.928.119-1.366-.248-.383-.686-.455-1.123-.285M674.584 168.76a.46.46 0 0 0 .461-.461.462.462 0 1 0-.461.461M672.278 163.229c.502 0 .922-.206.922-.461 0-.256-.412-.461-.922-.461-.511 0-.923.214-.923.461s.412.461.923.461M679.194 163.229a.46.46 0 0 0 .461-.461.46.46 0 0 0-.461-.461.46.46 0 1 0 0 .922M687.488 162.307a.454.454 0 0 0-.457.461.462.462 0 1 0 .457-.461M668.587 169.682c1.024 0 1.844-.41 1.844-.917s-.82-.927-1.844-.927-1.845.41-1.845.927.82.917 1.845.917M688.876 154.006a.92.92 0 0 0-.923-.922.92.92 0 0 0-.922.922c0 .51.41.922.922.922a.92.92 0 0 0 .923-.922M693.026 104.209a.46.46 0 0 0 .461-.467.454.454 0 0 0-.461-.455.46.46 0 0 0-.462.455c0 .246.207.467.462.467M705.938 114.354a.46.46 0 0 0 .461-.461.46.46 0 0 0-.461-.461.46.46 0 0 0-.461.461.46.46 0 0 0 .461.461M706.858 111.586a.462.462 0 1 0-.002-.924.462.462 0 0 0 .002.924M691.186 102.362a.46.46 0 0 0 .457-.461.46.46 0 0 0-.457-.462.46.46 0 1 0 0 .923M690.252 105.129c.266 0 .469-.21.469-.467a.454.454 0 0 0-.469-.455.45.45 0 0 0-.453.455c0 .245.203.467.453.467M682.423 102.364c1.014 0 1.84-.415 1.84-.922s-.826-.922-1.84-.922c-1.013 0-1.849.414-1.849.922 0 .507.826.922 1.849.922M686.573 133.717c.251 0 .457-.412.457-.922 0-.509-.206-.922-.457-.922s-.466.413-.466.922.206.922.466.922M683.342 131.412c0 .253.199.461.461.461a.457.457 0 0 0 .461-.461.465.465 0 0 0-.461-.461.464.464 0 0 0-.461.461M681.03 130.03a.464.464 0 0 0 .466-.461.464.464 0 0 0-.466-.462.456.456 0 0 0-.456.462c0 .254.208.461.456.461M682.42 127.725c0 .246.204.461.461.461a.46.46 0 0 0 .461-.461.46.46 0 0 0-.461-.461.46.46 0 0 0-.461.461M686.773 128.131c.415.18.829-.142 1.225-.264.565-.18.998-.416 1.337-.926.452-.671.734-1.662.066-2.276-.575-.529-1.366-.813-1.959-1.313-.584-.501-1.064-1.125-1.61-1.653-.744-.728-2.722-2.513-3.786-1.521-.979.916-.461 2.465.123 3.419.574.945 1.374 1.984 2.269 2.636.358.255.697.406.998.736.405.435.782.935 1.337 1.181M686.871 117.003c.34.09.886.09 1.185.3.576.419-.186 1.509-.351 2.009-.308.979-.288 1.969.701 2.529.854.479 2.193.839 3.182.809 1.06-.03 2.007-.559 2.831-1.169.69-.5 1.473-1.2 2.358-1.33.989-.149 1.988-.349 2.986-.429.948-.07 2.204-.05 2.853-.85.721-.89.422-2.299.545-3.339.155-1.369.876-2.289 1.73-3.318.793-.96.824-1.709-.185-2.519-1.091-.86-2.657-1.399-3.336-2.679-.639-1.219-.134-2.709-.299-4.008-.134-1.06-.813-2.519-2.111-2.489-1.081.02-1.277 1.169-1.431 1.989-.175.94-.494 1.549-1.452 1.869-.937.32-1.884.45-2.739.97-.927.56-1.751 1.189-2.739 1.619-.772.35-2.08.65-2.327 1.579-.237.91.453 1.83.34 2.759-.134 1.19-1.39 1.849-2.225 2.539-.7.59-1.75 1.639-.854 2.519.35.35.875.51 1.349.63M703.248 128.51c-.238-.468.04-1.363.139-1.831.189-.927.438-1.853.557-2.789.169-1.384-.01-3.093-1.7-3.083-1.342 0-2.704.671-4.016.946-1.323.275-2.446.662-3.142 1.944-.577 1.048-.686 2.452-1.78 3.104-1.352.804-3.002 1.038-4.036 2.371-1.044 1.343.189 1.903 1.292 2.33 1.273.499 1.412 1.445 1.502 2.677.109 1.465.427 3.032 1.173 4.294.318.539.626.896 1.213 1.109.547.194 1.113.336 1.491.814.338.418.398 1.242.915 1.486.477.224 1.223-.051 1.759.061.597.132 1.362.326 1.86.733.566.478.914 1.241 1.252 1.903.318.621.666 1.771 1.402 2.005.765.234 1.79-.53 2.575-.662 1.014-.163 2.008.01 2.963-.478.914-.458 1.292-1.567 1.918-2.341.637-.793 2.188-1.842 1.989-3.022-.229-1.343-2.048-1.985-2.873-2.86-.905-.956.507-1.435 1.193-1.872 1.093-.692 1.55-1.598 1.69-2.88.129-1.252.348-2.585.238-3.837-.109-1.312-.835-2.289-1.809-3.093-.795-.662-1.979-1.618-3.072-1.476-1.283.183-2.028 1.883-2.655 2.87-.218.346-1.531 2.575-2.028 1.618M711.042 155.66c-.735.888-1.632 1.806-.171 2.479 1.188.561 2.428.572 3.677.316 1.249-.265 2.317-.469 3.314-1.356.494-.439.836-.98 1.451-1.265.967-.459 2.136-.612 3.163-.908 2.206-.653 4.413-1.377 6.679-1.734 1.199-.184 2.499-.296 3.254-1.388.816-1.183 1.159-2.897 1.491-4.284.322-1.357.272-2.469-1.078-3.122-.796-.387-2.659-.438-2.972-1.438-.393-1.245.635-2.52-.393-3.713-1.198-1.378-3.072-.266-4.331.357-.494.244-.686.326-.847-.245-.231-.847-.04-1.949-.121-2.826-.12-1.245-.574-3.825-2.196-2.397-.977.846-1.521 1.887-2.901 1.224-.353-.174-.866-.582-1.279-.398-.504.214-.514 1.051-.534 1.51-.061 1.387.312 2.805.04 4.172-.252 1.285-.403 2.52-.524 3.826-.171 1.693-.725 2.499-2.267 3.111-1.622.643-2.176 1.602-2.216 3.377-.04 1.785-.05 3.274-1.239 4.713M613.906 273.05c-.398-.234-.737.081-1.069.397-.572.549-.895 1.506-1.168 2.37-.133.421-.456 1.261-.083 1.612.315.292.787.105 1.094-.094.638-.409.828-.922 1.094-1.775.165-.549.745-2.148.124-2.522M608.302 269.486c-.374.205-.531.575-.571 1.122-.069 1.08.394 1.778 1.172 1.272.521-.342.934-1.765.452-2.408-.265-.342-.758-.15-1.053 0M588.368 237.461c.79-.056 1.431.157 2.151.37.681.204 1.511.037 2.172-.176.81-.259 2.582-.843 2.011-1.935-.29-.574-.93-1.074-1.471-1.454-.96-.676-2.502-1.417-3.572-.583-.531.416-.921.99-1.391 1.463-.421.426-.911.778-1.321 1.203-.28.297-.681.778-.23 1.102.42.297 1.2.056 1.671.019M588.54 222.798a.792.792 0 0 0 .716 1.288c.531-.058 1.559-.139 1.79-.719.542-1.405-1.894-1.358-2.506-.569M591.947 219.12c.317-.55-.183-1.876-.78-2.246-1.145-.711-1.048 1.166-.828 1.592.256.464 1.084 1.583 1.608.663M586.744 216.007c.72-.349 1.16.061 1.923.041.989-.031.559-1.107.226-1.65-.355-.574-1.096-.482-1.72-.359-1.472.287-2.794 1.005-2.45 2.644.043.195 1.881-.594 2.031-.666M580.247 218.676c-1.434.541-2.401 1.595-1.901 2.928.712 1.94 3.001-1.063 3.401-1.725.534-.886-.4-1.613-1.5-1.203M559.103 208.539c-.781.821-1.755 2.423-.752 3.462.56.582 1.389.124 2.025-.057.569-.162 1.418-.362 1.996-.143.569.219.916.858 1.504 1.087.579.229 1.321.172 1.842-.162 1.099-.706 1.408-2.327 1.427-3.538.029-1.726-1.542-3.481-3.317-3.538-1.87-.057-3.519 1.65-4.715 2.889M515.506 257.752c0 .764.203 1.384.461 1.384s.461-.62.461-1.384-.203-1.383-.461-1.383-.461.62-.461 1.383M469.396 236.542c0 1.273.419 2.305.923 2.305.503 0 .922-1.032.922-2.305s-.41-2.306-.922-2.306c-.513 0-.923 1.033-.923 2.306M478.597 233.376c.432 1.039 1.781.875 2.718.808.649-.048 1.699-.404 2.214-.779.679-.49.71-1.144.834-1.865.123-.769.401-1.538.556-2.317.216-1.048.226-2.115-.103-3.143-.33-1.039-.978-1.942-1.401-2.942-.442-1.048-.473-2.269-.988-3.278-.474-.942-1.441.115-1.936.538-1.009.837-2.265 1.567-3.14 2.529-.823.913-.648 2.028-.206 3.057.453 1.076 1.246 1.999 1.565 3.105.062.23.114.461.134.711.093 1.192-.741 2.365-.247 3.567M422.363 215.793c0 .514.614.922 1.384.922s1.383-.42 1.383-.922-.623-.922-1.383-.922c-.761 0-1.384.409-1.384.922M414.062 204.264c0 .25.412.461.923.461.51 0 .922-.211.922-.461s-.412-.461-.922-.461c-.511 0-.923.211-.923.461M412.68 202.883c.251 0 .461-.415.461-.922s-.203-.922-.461-.922c-.259 0-.461.415-.461.922s.202.922.461.922M416.498 202.578c.347.239.594.603.961.823.486.296 1.289.421 1.854.402a9.4 9.4 0 0 0 1.547-.182c.773-.153 1.556-.239 2.34-.364.396-.067.783-.201 1.189-.248.357-.048.694.038 1.051.038.952-.01 2.142-.038 2.905-.679.585-.488.535-1.196.337-1.866-.287-.995-.664-1.961-.902-2.975-.228-.966-.307-2.047-.793-2.937-.942-1.684-3.807-2.353-5.473-1.445-1.17.632-2.062 1.694-3.123 2.469-1.15.851-2.528 1.425-3.619 2.353-1.844 1.559.328 3.654 1.726 4.602M361.959 195.504c-.762 0-1.383.41-1.383.917s.621.927 1.383.927c.763 0 1.384-.419 1.384-.927 0-.507-.621-.917-1.384-.917M312.621 174.293c-.505 0-.922.618-.922 1.383s.417 1.384.922 1.384.923-.619.923-1.384-.418-1.383-.923-1.383M309.856 173.833c0-.759-.414-1.384-.922-1.384s-.922.614-.922 1.384.414 1.383.922 1.383.922-.625.922-1.383M309.395 177.981c.25 0 .461-.209.461-.461a.465.465 0 0 0-.461-.461.464.464 0 0 0-.461.461c0 .252.21.461.461.461M299.711 184.438c0 .518.41.922.922.922a.915.915 0 0 0 .922-.922.915.915 0 0 0-.922-.922.925.925 0 0 0-.922.922M302.479 177.52a.46.46 0 1 0 .922 0 .46.46 0 0 0-.461-.461.46.46 0 0 0-.461.461M304.322 174.754c0 .253.414.461.922.461.509 0 .923-.208.923-.461s-.414-.461-.923-.461c-.508 0-.922.208-.922.461M460.633 194.583c.256 0 .461-.412.461-.923 0-.51-.205-.922-.461-.922s-.461.412-.461.922c0 .511.205.923.461.923M464.784 185.82a.461.461 0 1 0-.923 0 .461.461 0 0 0 .923 0M462.477 171.526c.254 0 .461-.416.461-.917s-.207-.927-.461-.927-.461.415-.461.927.207.917.461.917M460.522 188.889c1.028.726 1.855-1.207 2.206-2.061.368-.884.201-1.963-.1-2.847-.267-.795-1.195-1.816-1.955-1.197-.686.559-.31 1.668-.167 2.424.142.766.15 1.414-.151 2.111-.217.5-.326 1.236.167 1.59"/>
        <path d="M461.448 180.894c.673.08 1.225-.351 1.867-.371.141 0 .271.03.392.1.211.12.321.341.411.561.051.121.071.241.111.361.04.13.12.231.171.351.03.1.05.19.09.28.12.341.321.652.552.922.241.291.522.552.783.812.321.331.653.682.783 1.133.101.35.04.701.101 1.042.07.381.261.651.522.922.17.17.662.471.682.742.041.581-1.596.611-1.977.891-.814.622.311 1.915.612 2.546.512 1.072-.171.752-.813.311-.793-.542-1.576-.922-2.279-.03-.623.781-.934 1.924-.894 2.916.03.862.342 1.694.803 2.405.452.702 1.326 1.353 1.486 2.205.181.962-.532 1.894-.582 2.846-.06 1.132.813 1.293 1.737 1.112s1.707-.471 2.349.411c.582.812.894 1.814 1.938 2.125.943.28 1.737.1 2.359 1.022.733 1.092 1.024 2.505 2.159 3.297.752.521 1.877.662 2.62.05.632-.501.703-1.413.703-2.164 0-.882-.231-1.734-.251-2.606-.041-1.072.1-2.105-.061-3.177-.1-.651-.361-1.343-.311-1.994.04-.461.211-.902.251-1.363.121-1.393-.07-2.816.532-4.129.834-1.824 2.018-3.898 1.717-5.983-.131-.912-.392-1.924.07-2.776.462-.872 1.587-1.433 2.38-1.974.492-.331 1.004-.642 1.566-.872.472-.191 1.004-.281 1.446-.521 1.074-.602.843-2.055.833-3.087 0-.26-.081-.882.221-1.032.221-.11.602.17.803.22.823.211 1.044-.471 1.676-.801.643-.331 1.376.12 1.988-.341.603-.461.793-1.774 1.617-1.894.572-.09 1.325.802 1.787.18.512-.691-.101-1.884.15-2.666.472-1.473 3.203-.36 3.414-2.295.281-2.625-2.46-4.058-4.066-5.562-.683-.641-1.265-1.292-2.079-1.773-.803-.481-1.586-1.333-2.489-1.574-.994-.26-2.099-.451-3.093-.09-.451.17-.983.361-1.345.691-.391.361-.512.912-.853 1.313-.763.892-1.938.762-2.791.101-.723-.572-1.295-1.704-2.39-1.353-.793.25-1.616 1.573-1.194 2.375.421.822 1.927.671 1.596 1.914-.12.461-.472.752-.783 1.082-.291.301-.502.662-.793.962-.854.892-1.948.481-2.952.932-1.074.491-1.335 1.864-2.289 2.526-.843.581-1.857.541-2.831.631-.914.09-1.275-.541-1.496-1.403-.17-.661-.271-1.573-1.144-1.523-1.446.09-2.54 1.794-3.384 2.776-1.265 1.483-2.279 2.926-2.981 4.77-.422 1.123-.994 3.247.803 3.468M496.034 165.213c.441.509.973.915 1.414 1.424.712.814 1.294 1.729 1.816 2.686.281.508.502 1.098.993 1.424 1.204.813 3.07 1.383 3.672-.367.391-1.119.191-2.421.622-3.499.331-.834.903.204 1.194.57.391.508.953 1.21 1.475.468.391-.57.401-1.699.993-2.106.501-.336 1.123.305 1.645.366 1.054.133 1.736-1.027 2.197-1.821.281-.468.943-2.299 1.676-2.176.642.111 1.123 1.637 1.474 2.115 1.806 2.381 3.592-1.678 4.124-3.102.16-.417.562-2.452 1.073-2.584.462-.122.893 1.373 1.054 1.678.331.652.852 1.537 1.595.845.632-.59.832-1.974 1.585-2.391.531-.295.953.682 1.123 1.068.261.58.392 1.13 1.134 1.13.813 0 1.665-.367 2.498-.407.642-.031 1.746.132 2.187-.54.321-.498.09-1.658.1-2.237.021-1.089.713-1.445 1.505-.723.462.417 1.295.784 1.947.712.531-.061.561-.508.963-.844.672-.58 1.986-.824 2.849-.905 1.053-.102.923.854 1.745 1.21.893.387 1.716-.732 2.438-1.078.462-.214.863-.458 1.375-.366 1.234.213 2.428 0 3.662-.234.963-.183 1.846-.214 2.789-.549 1.073-.387 1.685-.336 2.488.528a10.5 10.5 0 0 0 2.558 2.015c1.003.539 2.066.315 3.01-.184 1.043-.559 2.347-.956 3.521-.874 1.144.071 2.217.569 3.361.641 1.394.091 2.718-.397 4.043-.774 1.474-.427 2.939-.681 4.474-.671 1.234 0 2.538.153 3.662-.498 1.274-.743 2.077-2.198 2.699-3.5 1.143-2.411 2.036-5.218-.482-7.008-2.217-1.567-5.217-2.086-7.665-.845-2.056 1.038-3.732 2.147-6.069 2.482-1.094.163-2.207.173-3.281-.112-.983-.264-1.896-.742-2.889-.996-2.097-.529-4.495.264-6.31-1.221-1.866-1.536-3.261-4.242-6.08-3.215-.612.224-1.144.58-1.685.926-.462.285-.923.824-1.415 1.007-.682.254-1.154-.366-1.685-.712-.582-.366-1.094-.376-1.756-.386-1.324 0-2.508-.54-3.702-1.079-1.204-.529-2.488-.325-3.752-.081-1.605.305-2.629 1.597-4.354 1.312-.662-.112-1.164-.244-1.665.295-.462.509-.663 1.19-1.305 1.536-1.494.794-2.749-1.19-4.163-.61-.773.315-1.023 1.271-1.716 1.678-.752.458-1.264-.335-1.655-.915-.431-.631-.823-1.496-1.635-1.679-.662-.142-1.435.214-1.886.712-1.184 1.302.19 2.248.792 3.337.412.773-.22 1.139-.873 1.312-.822.214-1.514.112-1.504 1.272 0 .407.582 1.8.351 2.105-.482.631-2.92-2.472-3.963-1.607-.823.682.361 2.93-1.094 2.818-1.524-.112-2.919-.234-3.772 1.363-.481.905-.391 2.543-1.765 1.841-.693-.356-1.295-.946-2.057-1.149-.793-.214-1.364.234-1.926.742-.552.509-1.134 1.129-1.936 1.068-.773-.061-1.385-.671-2.117-.854-.743-.183-1.505.102-1.856.814-.412.844.1 1.597.782 2.075.703.498 1.997.773 2.468 1.536.492.783-.792 1.149-1.314 1.282-.482.122-2.147.101-2.418.6-.271.498.843 1.556 1.104 1.882.511.661.973 1.383 1.535 2.014M35.701 380.941c1.02-1.937-1.149-2.434-2.476-2.971-.772-.314-1.436-.72-1.793-1.521-.287-.669-.297-1.43-.653-2.068-.743-1.308-2.546-1.237-2.12-3.154.189-.861.713-1.48.822-2.362.149-1.146.297-2.241.882-3.255a38 38 0 0 0 1.842-3.67c.258-.619 3.199-5.141.901-4.715-.99.183-1.773 1.359-2.307 2.14-.723 1.044-1.357 2.159-1.744 3.386-.376 1.227-.425 2.535-.822 3.752s-1.079 2.332-1.772 3.396c-.466.73-1.208 2.221-2.07 2.515-.96.314-.901-1.4-.97-2.018-.09-.781-.516-1.967-.16-2.707.427-.882 1.655-1.166 2.427-1.592 1.07-.598 1.228-1.673 1.525-2.809.337-1.318.882-2.504 1.318-3.771.396-1.146.218-2.393.148-3.569a34 34 0 0 1-.04-4.036c.07-1.328.1-2.656.12-3.984.01-.741.197-1.785-.367-2.363-.733-.75-2.238-.74-3.19-.912-1.405-.264-1.297.872-1.91 1.855-.674 1.085-1.862 1.643-3.05 1.349-1.279-.315-2.1-1.339-2.942-2.312-.902-1.044-1.823-2.079-3.06-2.697-1-.507-2.09-.74-3.07-1.308-1.239-.71-3.546-3.61-4.745-1.288-.614 1.187.179 2.342 1.03 3.123.743.679 2.476 1.501 2.476 2.707-.01 1.116-1.376 1.846-1.901 2.697-.614.963-.01 1.602.525 2.413 1.208 1.836.356 4.543-1.734 5.283-1.842.659-3.822-.365-5.328 1.338-.584.659-1.178 1.572-1.416 2.444-.258.933.168 1.561.733 2.261.663.831 1.139 1.602 1.475 2.626.436 1.338 1.05 2.281 2.308 2.961.644.344 1.337.567 1.961.932 1.04.619 2.04.953 3.239 1.095 1.574.193 2.614.842 3.823 1.866 1.01.862 2.188 1.501 3.238 2.302.515.385.842.872 1.495.922.793.051 1.645-.081 2.437-.172.762-.091 1.842-.345 2.505.203 1.476 1.216-.168 4.035.625 5.596.356.7 1.119.872 1.782 1.136.872.345 1.624.811 2.387 1.369 1.495 1.095 2.892 1.713 4.585.649 1.13-.7 2.447-1.825 3.08-3.032M1195.17 246.145c.47.548 1.15 1.506 1.18 2.309.02.87 0 1.81.37 2.602.32.695 1.86 1.106 2.09.108.11-.48-.07-1.096-.15-1.566-.08-.45-.2-.88-.31-1.32-.33-1.488-.5-2.994-.32-4.52.09-.822.28-1.624.45-2.427.13-.616.28-1.291.19-1.937-.15-1.154-1.2-1.878-2.09-2.23-.82-.333-1.83-.216-1.79 1.027.02.939.74 1.663.73 2.583-.03 1.164-.85 2.201-1.19 3.267-.32 1.047.24 1.429.83 2.104M788.694 587.89c-.728.543-4.979 3.552-3.658 4.779 1.312 1.239 3.689-1.699 4.396-2.738.327-.507 1.331-1.711.655-2.336-.41-.389-1.035.024-1.393.295M1116.77 331.989c.51 0 .92-.621.92-1.388s-.41-1.378-.92-1.378-.92.621-.92 1.378.41 1.388.92 1.388"/>
    </g>
</svg>